<?xml version="1.0" encoding="iso-8859-1"?>
<!-- Generator: Adobe Illustrator 18.0.0, SVG Export Plug-In . SVG Version: 6.00 Build 0)  -->
<!DOCTYPE svg PUBLIC "-//W3C//DTD SVG 1.1//EN" "http://www.w3.org/Graphics/SVG/1.1/DTD/svg11.dtd">
<svg version="1.1" id="Capa_1" xmlns="http://www.w3.org/2000/svg" xmlns:xlink="http://www.w3.org/1999/xlink" x="0px" y="0px"
	 viewBox="0 0 487.289 487.289" style="enable-background:new 0 0 487.289 487.289;" xml:space="preserve">
<g>
	<path d="M199.916,105.98c9.66,14.115,25.887,23.399,44.244,23.399c18.381,0,34.626-9.306,44.282-23.45
		c22.142-11.938,21.881-32.248,21.762-40.984c-0.494-36.033-27.426-63.325-64.04-64.894c-19.309-0.831-30.501,8.582-33.923,12.025
		c-2.991,0.678-9.641,2.705-16.294,8.247c-7.913,6.591-17.452,19.646-17.959,44.408C177.808,73.502,177.405,93.911,199.916,105.98z
		 M244.16,120.879c-24.859,0-45.084-20.225-45.084-45.084V63.237c11.655-4.42,18.839-16.708,22.369-24.55
		c9.609,10.114,33.232,30.551,67.8,31.61v5.497C289.245,100.655,269.02,120.879,244.16,120.879z M186.486,64.906
		c0.827-40.374,27.357-44.549,28.461-44.704c1.059-0.136,2.045-0.685,2.731-1.502c0.377-0.448,9.427-10.956,28.122-10.156
		c31.963,1.37,55.474,25.139,55.903,56.518c0.078,5.745,0.194,14.838-5.404,23.05c0.936-3.958,1.445-8.078,1.445-12.316v-5.832
		c1.664-0.64,2.816-2.273,2.728-4.152c-0.112-2.344-2.112-4.17-4.447-4.043c-44.754,2.134-72.33-33.373-72.601-33.727l-0.009,0.007
		c-0.521-0.691-1.247-1.234-2.138-1.506c-2.241-0.686-4.62,0.577-5.307,2.822c-0.077,0.253-8.191,25.384-24.218,26.955
		c-2.336,0.229-4.044,2.308-3.814,4.644c0.159,1.628,1.22,2.947,2.637,3.523v11.309c0,4.363,0.536,8.6,1.525,12.663
		C187.106,81.356,186.318,73.086,186.486,64.906z"/>
	<path d="M245.642,87.108h-5.393c-10.273,0-18.632,8.358-18.632,18.631v5.573c0,2.347,1.902,4.25,4.25,4.25
		c2.348,0,4.25-1.903,4.25-4.25v-5.573c0-5.586,4.545-10.131,10.132-10.131h5.393c5.586,0,10.131,4.545,10.131,10.131v5.573
		c0,2.347,1.902,4.25,4.25,4.25c2.348,0,4.25-1.903,4.25-4.25v-5.573C264.273,95.466,255.916,87.108,245.642,87.108z"/>
	<path d="M247.955,103.575h-10.019c-2.348,0-4.25,1.903-4.25,4.25c0,2.347,1.902,4.25,4.25,4.25h10.019
		c2.348,0,4.25-1.903,4.25-4.25C252.205,105.477,250.303,103.575,247.955,103.575z"/>
	<path d="M441.721,273.487c-10.852-18.067-23.337-30.147-36.148-35.263c5.912-3.489,9.768-9.15,9.768-15.533
		c0-2.347-1.902-4.25-4.25-4.25h-25.701l-54.273-54.807l13.064-14.594c1.565-1.749,1.416-4.436-0.332-6.001
		c-1.748-1.564-4.435-1.417-6.002,0.332l-12.722,14.212c0,0-13.901-14.146-18.607-18.791c-0.014-0.013-0.029-0.022-0.042-0.035
		c-4.884-4.879-11.624-7.896-19.056-7.896h-22.475c-2.171,0-3.993,1.637-4.225,3.796c-0.562,5.224-8.542,9.632-13.257,9.632
		c-4.715,0-12.696-4.408-13.258-9.632c-0.232-2.159-2.055-3.796-4.226-3.796l-38.42,0.002c-0.089-0.002-0.176-0.002-0.265-0.002
		c-9.924,0-18.735,6.689-21.44,16.378c-0.136,0.486-13.49,48.836-17.961,64.852c-3.285,11.774,4.643,25.564,16.634,28.933
		c2.972,0.835,7.184,2.017,11.992,3.366v36.819c0,1.968,1.344,3.607,3.159,4.091v30.308l-48.883,54.612
		c-8.237-6.929-18.544-10.711-29.434-10.711c-12.129,0-23.54,4.681-32.168,13.188l-45.68,33.498c-1,0.733-1.63,1.867-1.724,3.103
		c-0.095,1.236,0.355,2.453,1.232,3.33l71.047,71.047c0.8,0.8,1.882,1.245,3.005,1.245c0.107,0,0.216-0.004,0.324-0.012
		c1.236-0.095,2.37-0.725,3.104-1.725l33.497-45.68c16.568-16.807,17.496-43.333,2.79-61.232l42.89-47.917v127.882
		c0,17.122,13.931,31.053,31.053,31.053c17.122,0,31.053-13.93,31.053-31.053V344.127h2.807v112.109
		c0,17.122,13.931,31.053,31.053,31.053s31.052-13.93,31.052-31.053V285.406c2.09-0.268,3.71-2.033,3.71-4.195v-66.035
		l40.526,40.226c-4.566,5.113-8.967,11.159-13.127,18.085c-11.652,19.402-19.791,43.715-19.791,59.127
		c0,30.248,31.29,54.856,69.75,54.856s69.75-24.608,69.75-54.856C461.513,317.202,453.374,292.889,441.721,273.487z
		 M131.754,431.728c-0.153,0.153-0.294,0.317-0.423,0.492l-3.346,4.563l-45.951-46.085c-1.657-1.662-4.348-1.665-6.011-0.009
		c-1.662,1.658-1.666,4.349-0.009,6.011l46.884,47.021l-22.323,30.441l-10.699-10.7l17.651-17.76
		c1.654-1.665,1.646-4.356-0.019-6.01c-1.664-1.654-4.354-1.646-6.011,0.018l-17.634,17.741l-25.519-25.52l9.68-9.728
		c1.655-1.664,1.648-4.355-0.015-6.01c-1.664-1.656-4.356-1.65-6.011,0.015l-9.665,9.713l-3.514-3.514l14.196-14.196
		c1.66-1.66,1.66-4.351,0-6.011c-1.658-1.659-4.352-1.659-6.01,0l-14.196,14.197l-6.277-6.277l41.213-30.222l42.976,43.136
		c0.83,0.833,1.921,1.25,3.011,1.25c1.085,0,2.17-0.413,3-1.239c1.662-1.657,1.667-4.348,0.011-6.01l-42.396-42.554
		c6.146-4.204,13.404-6.471,21.012-6.471c9.97,0,19.344,3.882,26.393,10.933C146.306,393.495,146.306,417.175,131.754,431.728z
		 M391.763,233.374c-6.056,0-11.416-2.686-13.786-6.433h27.572C403.178,230.688,397.818,233.374,391.763,233.374z M377.952,238.224
		c-5.794,2.313-11.521,6.046-17.06,11.12l-42.702-42.387l22.039-22.04l33.198,33.524h-0.993c-2.348,0-4.25,1.903-4.25,4.25
		C368.184,229.074,372.04,234.735,377.952,238.224z M269.013,267.455h36.892v9.505H229.68l76.225-85.159v67.154h-36.892
		c-2.348,0-4.25,1.903-4.25,4.25S266.665,267.455,269.013,267.455z M189.018,276.96v-30.185
		c17.004,4.77,36.414,10.212,36.412,10.211c3.426,0.963,6.95,1.08,10.345,0.418l-17.504,19.556H189.018z M334.249,178.877
		l-19.845,19.845v-16.417l11.033-12.326L334.249,178.877z M314.404,169.56v-10.723l5.041,5.091L314.404,169.56z M178.041,149.522
		c1.705-6.056,7.224-10.217,13.467-10.159l35.185-0.001c3.273,8.306,13.695,13.427,20.77,13.427c7.073,0,17.495-5.121,20.769-13.427
		h19.189c10.192,0,18.485,8.293,18.485,18.485v21.209l-52.051,58.151c0.852-10.471-5.794-20.448-16.278-23.398l-36.824-10.358
		l8.047-26.007c0.693-2.243-0.562-4.623-2.805-5.316c-2.239-0.694-4.622,0.562-5.316,2.804l-6.505,21.024h-28.976
		C170.79,175.771,177.946,149.863,178.041,149.522z M170.825,232.841c-7.578-2.128-12.8-11.102-10.745-18.464
		c0.72-2.58,1.671-6.001,2.76-9.922h28.702l-0.201,0.65c-0.338,1.095-0.221,2.281,0.327,3.288c0.548,1.007,1.479,1.749,2.583,2.06
		l41.023,11.54c3.58,1.007,6.555,3.348,8.374,6.593c1.82,3.244,2.268,7.003,1.261,10.584c-1.008,3.58-3.349,6.555-6.594,8.374
		c-3.244,1.82-7,2.268-10.587,1.259C227.728,248.803,185.049,236.837,170.825,232.841z M192.178,285.46h18.485l-18.485,20.652
		V285.46z M214.73,478.789c-12.436,0-22.553-10.117-22.553-22.553v-2.781h45.105v2.781
		C237.283,468.672,227.166,478.789,214.73,478.789z M241.533,335.627c-2.348,0-4.25,1.903-4.25,4.25v105.078h-45.105V318.858
		l29.894-33.397h80.123v22.679l-14.969-14.969c-1.658-1.659-4.352-1.659-6.01,0c-1.66,1.66-1.66,4.351,0,6.011l20.978,20.979
		v110.814h-7.217c-2.348,0-4.25,1.903-4.25,4.25c0,2.347,1.902,4.25,4.25,4.25h7.217v5.481H257.09V339.877
		c0-2.347-1.902-4.25-4.25-4.25H241.533z M279.642,478.789c-12.436,0-22.553-10.117-22.553-22.553v-2.781h45.104v2.781
		C302.194,468.672,292.078,478.789,279.642,478.789z M391.763,378.97c-33.773,0-61.25-20.796-61.25-46.356
		c0-9.249,3.337-22.192,8.738-35.158h22.762c2.348,0,4.25-1.903,4.25-4.25s-1.902-4.25-4.25-4.25h-18.926
		c1.854-3.798,3.863-7.528,6.004-11.092c7.607-12.666,23.267-33.915,42.672-33.915c19.405,0,35.064,21.249,42.672,33.915
		c4.374,7.283,8.207,15.251,11.248,23.092h-26.67c-2.348,0-4.25,1.903-4.25,4.25s1.902,4.25,4.25,4.25h29.67
		c1.861,5.883,3.18,11.5,3.838,16.5h-47.508c-2.348,0-4.25,1.903-4.25,4.25s1.902,4.25,4.25,4.25h47.938
		C451.667,359.164,424.72,378.97,391.763,378.97z"/>
	<path d="M206.012,333.955c-2.348,0-4.25,1.903-4.25,4.25v99c0,2.347,1.902,4.25,4.25,4.25s4.25-1.903,4.25-4.25v-99
		C210.262,335.858,208.36,333.955,206.012,333.955z"/>
	<path d="M264.013,178.455h19c2.348,0,4.25-1.903,4.25-4.25c0-2.347-1.902-4.25-4.25-4.25h-19c-2.348,0-4.25,1.903-4.25,4.25
		C259.763,176.553,261.665,178.455,264.013,178.455z"/>
</g>
<g>
</g>
<g>
</g>
<g>
</g>
<g>
</g>
<g>
</g>
<g>
</g>
<g>
</g>
<g>
</g>
<g>
</g>
<g>
</g>
<g>
</g>
<g>
</g>
<g>
</g>
<g>
</g>
<g>
</g>
</svg>
