<?xml version="1.0" encoding="utf-8"?>
<!-- Generator: Adobe Illustrator 16.0.0, SVG Export Plug-In . SVG Version: 6.00 Build 0)  -->
<!DOCTYPE svg PUBLIC "-//W3C//DTD SVG 1.1//EN" "http://www.w3.org/Graphics/SVG/1.1/DTD/svg11.dtd">
<svg version="1.1" xmlns="http://www.w3.org/2000/svg" xmlns:xlink="http://www.w3.org/1999/xlink" x="0px" y="0px" width="933px"
	 height="565px" viewBox="0 0 933 565" enable-background="new 0 0 933 565" xml:space="preserve">
<g id="Layer_2">
	<ellipse opacity="0.5" fill="#BCBCBC" cx="468.063" cy="537.296" rx="432.183" ry="10.598"/>
</g>
<g id="Layer_1">
	<path fill="#7FE5E0" d="M926.053,408.835c-0.533-4.187-2.076-8.241-4.459-11.722l-2.262-3.303v-85.603
		c0-0.829-0.037-1.653-0.114-2.479c-1.392-14.976-13.038-42.781-47.801-52.615l-12.16-5.76L756.525,112.262
		c-5.028-6.611-12.987-10.556-21.291-10.556h-2.588V46.845c0-14.75-12.001-26.75-26.75-26.75H177.021
		c-7.276-4.784-15.699-7.302-24.439-7.302c-9.435,0-18.654,2.998-26.3,8.5c-10.756,0.721-20.739,5.99-27.419,14.481
		C87.949,38.429,78.238,45.018,71.8,54.261c-1.419,2.032-2.68,4.229-3.775,6.568c-10.12,3.278-18.891,9.752-25.035,18.571
		c-5.211,7.474-8.247,16.465-8.706,25.628c-0.229,0.305-0.449,0.608-0.659,0.913c-8.076,11.586-9.144,26.553-3.23,39
		c-3.745,5.809-6.211,12.368-7.229,19.211c-0.932,1.128-1.822,2.301-2.659,3.501c-12.902,18.52-12.59,43.147,0.436,61.041V479.96
		c0,14.751,12,26.748,26.75,26.748h98.144c7.801,0,15.052-3.382,20.044-9.029c14.937,25.812,42.955,42.634,73.565,42.634
		c32.243,0,60.848-17.944,75.209-45.474c14.36,27.529,42.965,45.474,75.208,45.474c36.955,0,69.134-23.574,80.56-58.139h216.524
		c11.424,34.564,43.604,58.139,80.557,58.139c36.955,0,69.135-23.574,80.56-58.139h34.921c6.721,0,13.147-2.506,18.098-7.05
		C902.304,474,930.951,447.193,926.053,408.835"/>
	<path fill="#474946" d="M297.586,455.423c0,32.11-26.029,58.14-58.139,58.14c-32.11,0-58.141-26.029-58.141-58.14
		s26.03-58.139,58.141-58.139C271.557,397.285,297.586,423.313,297.586,455.423"/>
	<path fill="#474946" d="M448.002,455.423c0,32.11-26.028,58.14-58.138,58.14s-58.141-26.029-58.141-58.14
		s26.031-58.139,58.141-58.139S448.002,423.313,448.002,455.423"/>
	<path fill="#474946" d="M825.645,455.423c0,32.11-26.03,58.14-58.14,58.14c-32.11,0-58.142-26.029-58.142-58.14
		s26.031-58.139,58.142-58.139C799.614,397.285,825.645,423.313,825.645,455.423"/>
	<polygon fill="#A5A5A5" points="735.234,128.456 705.896,128.456 624.821,128.456 624.821,148.109 750.18,148.109 	"/>
	<path fill="#A5A5A5" d="M862.18,308.441v-30.102l-20.269-9.602l-8.578-11.282H624.821v141.428v3.2h106.347
		c10.348-7.066,22.857-11.2,36.337-11.2c13.477,0,25.984,4.134,36.337,11.2h88.741v-62.118
		C863.822,339.966,862.18,321.497,862.18,308.441"/>
	<polygon fill="#848789" points="750.18,148.111 624.821,148.111 624.821,257.456 833.332,257.456 	"/>
	<path fill="#B73750" d="M731.168,402.084H624.821v26.672h83.91C713.648,417.943,721.447,408.717,731.168,402.084"/>
	<path fill="#DB495E" d="M624.821,455.423h78.143c0-9.512,2.07-18.54,5.768-26.669h-83.91V455.423z"/>
	<path fill="#B73750" d="M899.519,412.217l-6.934-10.133H803.84c9.718,6.634,17.521,15.856,22.437,26.672h72.186
		C899.72,423.729,900.279,418.18,899.519,412.217"/>
	<path fill="#DB495E" d="M826.276,428.756c3.697,8.127,5.77,17.155,5.77,26.669h50.938c0,0,11.442-10.556,15.479-26.669H826.276z"/>
	<path fill="#D8A93F" d="M870.301,293.784c10.512,2.577,17.404,7.368,21.924,12.369c-1.288-5.778-6.924-22.145-30.045-27.813v30.102
		c0,8.378,0.69,18.974,8.77,25.501c-0.548-3.444-0.648-6.907-0.648-10.057V293.784z"/>
	<path fill="#FFD366" d="M892.585,308.208c0,0-0.073-0.769-0.36-2.056c-4.52-5.001-11.412-9.792-21.924-12.369v30.102
		c0,3.149,0.1,6.612,0.648,10.057c4.514,3.645,11.326,6.024,21.636,6.024V308.208z"/>
	<rect x="605.088" y="402.083" fill="#474946" width="19.733" height="53.341"/>
	<polygon fill="#4AD3B9" points="705.897,46.846 197.239,46.846 165.038,46.846 139.746,83.867 705.897,83.867 	"/>
	<path fill="#D3DBE5" d="M263.981,455.423c0,13.551-10.983,24.537-24.534,24.537c-13.551,0-24.537-10.986-24.537-24.537
		s10.985-24.535,24.537-24.535C252.998,430.888,263.981,441.873,263.981,455.423"/>
	<path fill="#D3DBE5" d="M414.399,455.423c0,13.551-10.986,24.537-24.535,24.537c-13.553,0-24.538-10.986-24.538-24.537
		s10.985-24.535,24.538-24.535C403.413,430.888,414.399,441.873,414.399,455.423"/>
	<path fill="#D3DBE5" d="M792.04,455.423c0,13.551-10.985,24.537-24.535,24.537c-13.552,0-24.537-10.986-24.537-24.537
		s10.985-24.535,24.537-24.535C781.055,430.888,792.04,441.873,792.04,455.423"/>
	<path fill="#848789" d="M654.778,279.627h43.946c2.111,0,3.82,1.71,3.82,3.819c0,2.111-1.709,3.823-3.82,3.823h-43.946
		c-2.11,0-3.819-1.712-3.819-3.823C650.959,281.337,652.668,279.627,654.778,279.627"/>
	<path fill="#474946" d="M654.778,275.807h43.946c2.111,0,3.82,1.71,3.82,3.82c0,2.109-1.709,3.821-3.82,3.821h-43.946
		c-2.11,0-3.819-1.712-3.819-3.821C650.959,277.517,652.668,275.807,654.778,275.807"/>
	<path fill="#474946" d="M62.283,151.345c-3.489,1.561-6.621,4.069-8.975,7.449c-3.606,5.172-4.664,11.35-3.441,17.013
		c-2.831,1.813-5.366,4.201-7.411,7.14c-8.033,11.527-5.562,27.168,5.397,35.418C70.393,178.991,62.283,151.345,62.283,151.345"/>
	<path fill="#FFD366" d="M62.827,116.303c-2.83,0.666-5.45,2.338-7.254,4.928c-3.847,5.52-2.562,13.063,2.87,16.849
		c0.644,0.447,1.316,0.818,2.008,1.12c-2.089,4.062-1.33,8.984,1.832,12.145c0,0,8.111,27.646-14.43,67.022l57.303-83.873
		C92.961,118.372,62.827,116.303,62.827,116.303"/>
	<path fill="#FFD366" d="M120.882,83.865c14.535-21.995-2.833-20.738-2.833-20.738c-8.34-4.128-18.74-1.558-24.304,6.427
		c-3.659,5.25-4.395,11.647-2.552,17.235C91.193,86.79,106.346,105.859,120.882,83.865"/>
	<path fill="#474946" d="M162.74,42.729c-8.147-5.676-19.43-3.567-25.197,4.71c-0.679,0.974-1.249,1.99-1.716,3.035
		c-0.223-0.185-0.449-0.367-0.691-0.536c-5.062-3.528-12.072-2.218-15.658,2.927c-2.18,3.127-2.581,6.95-1.429,10.261
		c0,0,17.368-1.257,2.833,20.738c-14.535,21.994-29.69,2.922-29.69,2.922c-9.22-3.794-20.234-0.741-26.259,7.903
		c-4.606,6.614-5.132,14.833-2.107,21.614c0,0,30.134,2.068,42.329,18.19l34.591-50.629l25.292-37.02h1.871
		C165.779,45.293,164.402,43.885,162.74,42.729"/>
	<polygon fill="#474946" points="47.692,479.96 145.836,479.96 156.504,455.425 47.692,455.425 	"/>
	<polygon fill="#3AB59E" points="705.897,102.32 705.897,83.865 591.152,83.865 605.086,102.32 	"/>
	<path fill="#3AB59E" d="M591.151,83.865H139.746L47.692,218.598v44.804v192.021h108.812h18.402
		c0-35.645,28.896-64.539,64.54-64.539c35.644,0,64.542,28.895,64.542,64.539h21.335c0-35.645,28.895-64.539,64.539-64.539
		c35.645,0,64.539,28.895,64.539,64.539h150.687v-56.539V102.32L591.151,83.865z"/>
	<path fill="#2D2620" d="M44.688,192.841c0,0-0.132,1.06-0.195,2.522c-0.034,0.732-0.013,1.564,0.037,2.428
		c0.115,0.854,0.187,1.761,0.496,2.598c0.209,0.872,0.627,1.659,1.015,2.417c0.207,0.372,0.463,0.705,0.668,1.056
		c0.2,0.355,0.486,0.618,0.693,0.921c0.425,0.6,0.875,1.033,1.159,1.387c0.292,0.348,0.454,0.569,0.454,0.569
		s-0.252-0.06-0.693-0.207c-0.43-0.158-1.088-0.344-1.748-0.809c-0.33-0.229-0.746-0.417-1.065-0.763
		c-0.334-0.329-0.74-0.638-1.045-1.06c-0.283-0.432-0.681-0.83-0.891-1.343c-0.233-0.501-0.498-1.002-0.636-1.551
		c-0.168-0.541-0.25-1.093-0.313-1.64c-0.088-0.544-0.013-1.086-0.009-1.598c0.109-1.023,0.341-1.948,0.664-2.688
		C43.886,193.59,44.688,192.841,44.688,192.841"/>
	<path fill="#D8A93F" d="M99.261,77.82c0,0,0.057-0.817,0.574-1.857c0.225-0.539,0.603-1.095,1.038-1.672
		c0.427-0.587,1.037-1.083,1.604-1.614l1.005-0.619c0.335-0.198,0.653-0.399,1.026-0.496c0.355-0.126,0.713-0.208,1.043-0.291
		c0.335-0.068,0.628-0.184,0.945-0.144c1.231,0.038,1.957,0.283,1.957,0.283s-0.707,0.502-1.616,0.921
		c-0.236,0.083-0.448,0.323-0.698,0.46c-0.243,0.162-0.488,0.339-0.759,0.481c-0.281,0.114-0.496,0.402-0.772,0.566l-0.805,0.569
		c-0.515,0.432-1.062,0.827-1.566,1.227c-0.493,0.417-1.004,0.77-1.428,1.108C99.943,77.383,99.261,77.82,99.261,77.82"/>
	<path fill="#D8A93F" d="M67.646,137.092c0,0,0.532-0.469,1.489-0.716c0.474-0.121,1.052-0.212,1.678-0.161
		c0.628,0.021,1.296,0.207,1.936,0.483c0.617,0.323,1.225,0.721,1.627,1.257c0.236,0.231,0.383,0.521,0.522,0.786
		c0.159,0.251,0.246,0.519,0.304,0.774c0.29,0.984,0.039,1.68,0.076,1.666c-0.026,0.016-0.512-0.488-1.15-1.023
		c-0.308-0.28-0.681-0.548-1.064-0.801c-0.179-0.142-0.398-0.24-0.599-0.362c-0.191-0.136-0.423-0.222-0.642-0.324
		c-0.866-0.437-1.885-0.747-2.71-1.047C68.288,137.35,67.646,137.092,67.646,137.092"/>
	<path fill="#2D2620" d="M90.22,119.923c0,0,1.091-0.334,2.583-0.883c0.75-0.268,1.592-0.623,2.471-1.009
		c0.858-0.428,1.779-0.848,2.604-1.418c0.873-0.495,1.641-1.137,2.362-1.746c0.373-0.294,0.676-0.636,0.999-0.938
		c0.327-0.301,0.603-0.618,0.859-0.916c0.546-0.576,0.949-1.115,1.25-1.494c0.309-0.374,0.509-0.589,0.509-0.589
		s-0.026,0.276-0.112,0.766c-0.085,0.49-0.216,1.201-0.584,1.98c-0.159,0.402-0.342,0.84-0.63,1.246
		c-0.272,0.415-0.521,0.896-0.91,1.282c-0.37,0.402-0.716,0.868-1.183,1.207c-0.436,0.38-0.9,0.739-1.399,1.046
		c-0.492,0.324-1.023,0.56-1.538,0.813c-0.515,0.25-1.065,0.39-1.575,0.564c-1.046,0.278-2.04,0.428-2.895,0.433
		C91.318,120.327,90.22,119.923,90.22,119.923"/>
	<path fill="#2D2620" d="M136.872,54.512c0,0,0.382,0.892,0.959,2.23c0.304,0.637,0.626,1.37,1.035,2.104
		c0.169,0.383,0.45,0.718,0.637,1.104c0.252,0.344,0.456,0.736,0.745,1.052c0.257,0.342,0.506,0.693,0.813,0.977
		c0.284,0.31,0.567,0.612,0.882,0.862c0.604,0.529,1.228,1,1.823,1.336c0.577,0.382,1.11,0.64,1.495,0.833
		c0.38,0.205,0.605,0.344,0.605,0.344c0.014-0.056-1.005,0.3-2.537-0.003c-0.39-0.053-0.808-0.142-1.217-0.332
		c-0.423-0.163-0.886-0.325-1.29-0.621c-0.881-0.485-1.655-1.257-2.313-2.084c-0.626-0.858-1.121-1.796-1.406-2.724
		c-0.318-0.916-0.442-1.81-0.486-2.567C136.532,55.5,136.872,54.512,136.872,54.512"/>
	<path fill="#FFFFFF" d="M657.614,449.434h-23.986c-2.11,0-3.821-1.714-3.821-3.821c0-2.109,1.711-3.823,3.821-3.823h23.986
		c2.108,0,3.82,1.714,3.82,3.823C661.435,447.72,659.723,449.434,657.614,449.434"/>
	<path fill="#FFFFFF" d="M676.509,449.434h-10.176c-2.11,0-3.82-1.714-3.82-3.821c0-2.109,1.71-3.823,3.82-3.823h10.176
		c2.11,0,3.819,1.714,3.819,3.823C680.328,447.72,678.619,449.434,676.509,449.434"/>
	<path fill="#FFFFFF" d="M395.243,108.947H284.771c-2.11,0-3.82-1.712-3.82-3.821c0-2.11,1.71-3.822,3.82-3.822h110.471
		c2.11,0,3.822,1.712,3.822,3.822C399.065,107.235,397.353,108.947,395.243,108.947"/>
	<path fill="#FFFFFF" d="M439.577,108.947h-25.178c-2.11,0-3.823-1.712-3.823-3.821c0-2.11,1.712-3.822,3.823-3.822h25.178
		c2.111,0,3.822,1.712,3.822,3.822C443.399,107.235,441.688,108.947,439.577,108.947"/>
	<path fill="#FFFFFF" d="M67.646,323.973c-2.11,0-3.821-1.713-3.821-3.821v-90.211c0-2.109,1.711-3.821,3.821-3.821
		c2.11,0,3.821,1.712,3.821,3.821v90.211C71.466,322.26,69.755,323.973,67.646,323.973"/>
	<path fill="#FFFFFF" d="M67.646,356.679c-2.11,0-3.821-1.714-3.821-3.823v-16.714c0-2.111,1.711-3.823,3.821-3.823
		c2.11,0,3.821,1.712,3.821,3.823v16.714C71.466,354.965,69.755,356.679,67.646,356.679"/>
	<polygon fill="#91D4DA" points="781.839,227.713 752.096,257.455 767.707,257.455 788.227,236.937 	"/>
	<polygon fill="#91D4DA" points="727.627,149.451 650.959,226.12 650.959,241.732 734.017,158.673 	"/>
	<polygon fill="#91D4DA" points="802.44,257.456 798.056,251.126 791.727,257.456 	"/>
	<polygon fill="#B4EEEF" points="743.846,172.863 734.017,158.673 650.959,241.732 650.959,257.456 659.253,257.456 
		682.072,257.456 753.182,186.344 	"/>
	<polygon fill="#B4EEEF" points="798.056,251.126 788.229,236.937 767.707,257.455 791.727,257.455 	"/>
	<polygon fill="#91D4DA" points="772.01,213.524 763.011,200.533 753.182,186.344 682.072,257.456 706.089,257.456 728.077,257.456 
		752.096,257.456 781.838,227.713 	"/>
	<polygon fill="#B4EEEF" points="726.699,148.111 704.948,148.111 685.51,148.111 661.49,148.111 650.959,148.111 650.959,158.643 
		650.959,182.66 650.959,202.102 650.959,226.12 727.627,149.451 	"/>
	<g>
		<g>
			<path fill="#FFFAFA" d="M223.82,147.251h-24.405v92.816h-14.083v-23.924c-9.335,6.296-19.417,9.443-30.246,9.443
				c-9.709,0-17.842-2.455-24.404-7.363c-6.935-5.174-10.402-11.948-10.402-20.324c0-3.68,0.973-7.265,2.92-10.76
				c1.948-3.495,4.494-5.962,7.641-7.403c-9.068-2.612-13.602-8.747-13.602-18.402c0-5.067,2.026-9.761,6.081-14.082H107v-12.802
				h116.82V147.251z M185.333,201.661v-54.41h-46.567c-4.961,3.68-7.441,8.001-7.441,12.962c0,7.949,5.626,11.921,16.883,11.921
				h12.481v11.602h-12.481c-3.629,0-6.75,1.227-9.363,3.68c-2.88,2.722-4.321,6.216-4.321,10.482c0,4.749,2.267,8.511,6.802,11.283
				c3.893,2.4,8.481,3.6,13.761,3.6C164.582,212.781,174.664,209.074,185.333,201.661z"/>
			<path fill="#FFFAFA" d="M203.496,100.122l-11.121,11.122l-11.202-11.122L192.375,89L203.496,100.122z"/>
			<path fill="#FFFAFA" d="M317.917,147.251H284.15v30.245h-14.163c-20.216,0-30.324,7.416-30.324,22.242
				c0,7.683,2.72,13.979,8.159,18.885c5.283,4.693,11.869,7.043,19.765,7.043c9.067,0,17.975-3.949,26.725-11.844l10.001,10.002
				c-10.135,10.401-22.592,15.602-37.367,15.602c-11.096,0-20.723-3.654-28.884-10.963c-8.375-7.466-12.563-16.507-12.563-27.123
				c0-12.749,3.947-22.298,11.841-28.646c6.935-5.602,16.376-8.401,28.326-8.401h4.401v-17.042h-52.01v-12.802h99.858V147.251z"/>
			<path fill="#FFFAFA" d="M360.643,147.251h-24.404v92.816h-14.082v-92.816h-10.003v-12.802h48.488V147.251z"/>
		</g>
		<g>
			<path fill="#FFFAFA" d="M415.77,283.209h-24.483v92.817h-14.083v-92.817h-27.364v42.088c0,9.55-1.935,16.734-5.802,21.563
				c-3.868,4.828-10.069,7.241-18.603,7.241c-3.148,0-5.989-0.533-8.522-1.602c-2.534-1.066-4.708-2.572-6.521-4.52
				c-1.814-1.948-3.215-4.295-4.201-7.042c-0.988-2.748-1.481-5.827-1.481-9.242c0-2.826,0.561-5.467,1.681-7.921
				c1.121-2.452,2.667-4.588,4.641-6.4c1.973-1.815,4.28-3.24,6.921-4.28c2.64-1.041,5.48-1.562,8.521-1.562
				c1.547,0,3.094,0.121,4.641,0.361c1.546,0.24,3.093,0.574,4.641,1v-29.686h-39.847v-12.803h119.86V283.209z M335.756,324.658
				c-1.494-0.533-2.989-0.96-4.482-1.281c-1.493-0.32-3.094-0.479-4.8-0.479c-1.28,0-2.507,0.238-3.681,0.718
				c-1.174,0.481-2.201,1.121-3.081,1.92c-0.879,0.8-1.573,1.735-2.08,2.801c-0.507,1.071-0.76,2.189-0.76,3.36
				c0,1.28,0.226,2.468,0.68,3.563c0.453,1.093,1.081,2.039,1.88,2.837c0.8,0.804,1.721,1.431,2.761,1.883
				c1.041,0.453,2.12,0.68,3.241,0.68c1.866,0,3.453-0.24,4.761-0.719c1.306-0.481,2.373-1.334,3.2-2.562
				c0.826-1.229,1.426-2.868,1.801-4.921C335.568,330.405,335.756,327.804,335.756,324.658z"/>
			<path fill="#FFFAFA" d="M458.497,283.209h-24.404v92.817H420.01v-92.817h-10.001v-12.803h48.488V283.209z"/>
			<path fill="#FFFAFA" d="M548.273,283.209H526.75v26.564h-42.649c-2.347,0-4.334,0.827-5.959,2.479
				c-1.629,1.656-2.442,3.655-2.442,6.003c0,2.882,1.28,5.15,3.842,6.801c2.188,1.389,4.8,2.079,7.842,2.079
				c2.613,0,5.602-0.41,8.96-1.238c3.363-0.827,6.35-1.239,8.963-1.239c7.572,0,13.869,1.945,18.882,5.84
				c5.281,4.108,7.922,9.629,7.922,16.563c0,10.084-4.028,17.923-12.082,23.524c-7.096,4.909-15.922,7.36-26.485,7.36
				c-15.575,0-27.844-4.907-36.804-14.722l9.2-8.322c6.294,6.935,15.494,10.402,27.604,10.402c6.456,0,12.084-1.227,16.885-3.679
				c5.92-3.042,8.882-7.416,8.882-13.124c0-3.361-1.388-6.188-4.161-8.479c-2.668-2.134-5.711-3.202-9.122-3.202
				c-2.508,0-5.254,0.428-8.24,1.277c-2.99,0.857-5.734,1.284-8.242,1.284c-17.552,0-26.325-6.989-26.325-20.964
				c0-7.47,2.772-13.096,8.321-16.883c3.893-2.667,8.028-4.002,12.4-4.002h28.728v-14.322h-59.771v-12.803h95.377V283.209z"/>
			<path fill="#FFFAFA" d="M591,283.209h-24.323v92.817h-14.083v-92.817h-10.082v-12.803h5.281
				c-10.829-17.175-19.39-25.764-25.685-25.764c-7.361,0-11.04,3.281-11.04,9.841c0,3.041,3.493,9.869,10.48,20.482l-10.724,6.642
				c-8.532-12.268-12.802-21.628-12.802-28.082c0-6.35,1.95-11.471,5.842-15.363c4.107-4.108,9.763-6.162,16.962-6.162
				c8.535,0,17.098,4.774,25.687,14.323c3.892,4.32,9.573,12.349,17.043,24.083H591V283.209z"/>
		</g>
	</g>
</g>
</svg>
