<?xml version="1.0" encoding="utf-8"?>
<!-- Generator: Adobe Illustrator 16.0.0, SVG Export Plug-In . SVG Version: 6.00 Build 0)  -->
<!DOCTYPE svg PUBLIC "-//W3C//DTD SVG 1.1//EN" "http://www.w3.org/Graphics/SVG/1.1/DTD/svg11.dtd">
<svg version="1.1" id="Layer_1" xmlns="http://www.w3.org/2000/svg" xmlns:xlink="http://www.w3.org/1999/xlink" x="0px" y="0px"
	 width="933px" height="565px" viewBox="0 0 933 565" enable-background="new 0 0 933 565" xml:space="preserve">
<g id="Layer_2_1_">
</g>
<g id="Layer_1_2_">
	<g id="Layer_2">
		<ellipse opacity="0.5" fill="#BCBCBC" enable-background="new    " cx="468.063" cy="537.296" rx="432.185" ry="10.598"/>
	</g>
	<g id="Layer_1_1_">
		<path fill="#FFC392" d="M926.053,408.835c-0.533-4.187-2.076-8.241-4.459-11.722l-2.262-3.306v-85.604
			c0-0.829-0.037-1.653-0.114-2.479c-1.392-14.978-13.038-42.783-47.801-52.617l-12.16-5.76L756.525,112.262
			c-5.028-6.611-12.987-10.556-21.291-10.556h-2.589V46.845c0-14.75-12.005-26.75-26.75-26.75H177.021
			c-7.276-4.784-15.699-7.302-24.439-7.302c-9.435,0-18.654,2.998-26.3,8.5c-10.756,0.721-20.739,5.99-27.419,14.481
			C87.949,38.429,78.238,45.018,71.8,54.261c-1.419,2.032-2.68,4.229-3.775,6.568C57.905,64.107,49.134,70.581,42.99,79.4
			c-5.211,7.474-8.247,16.465-8.706,25.628c-0.229,0.305-0.449,0.608-0.659,0.913c-8.076,11.586-9.144,26.553-3.23,39
			c-3.745,5.809-6.211,12.368-7.229,19.211c-0.932,1.128-1.822,2.301-2.659,3.501c-12.902,18.52-12.59,43.147,0.436,61.041V479.96
			c0,14.751,12,26.748,26.75,26.748h98.144c7.801,0,15.052-3.382,20.044-9.029c14.937,25.813,42.955,42.634,73.565,42.634
			c32.243,0,60.848-17.939,75.209-45.474c14.358,27.529,42.965,45.474,75.208,45.474c36.955,0,69.134-23.569,80.56-58.139h216.524
			c11.424,34.564,43.604,58.139,80.557,58.139c36.955,0,69.135-23.569,80.563-58.139h34.921c6.721,0,13.146-2.506,18.098-7.05
			C902.304,474,930.951,447.193,926.053,408.835"/>
		<path fill="#474946" d="M297.586,455.423c0,32.11-26.029,58.14-58.139,58.14c-32.11,0-58.141-26.024-58.141-58.14
			s26.03-58.139,58.141-58.139C271.557,397.285,297.586,423.313,297.586,455.423"/>
		<path fill="#474946" d="M448.002,455.423c0,32.11-26.028,58.14-58.138,58.14c-32.11,0-58.143-26.024-58.143-58.14
			s26.031-58.139,58.143-58.139C421.974,397.284,448.002,423.313,448.002,455.423"/>
		<path fill="#474946" d="M825.646,455.423c0,32.11-26.026,58.14-58.141,58.14s-58.142-26.024-58.142-58.14
			s26.03-58.139,58.142-58.139C799.614,397.285,825.646,423.313,825.646,455.423"/>
		<polygon fill="#A5A5A5" points="735.234,128.456 705.896,128.456 624.821,128.456 624.821,148.109 750.18,148.109 		"/>
		<path fill="#A5A5A5" d="M862.18,308.441v-30.104l-20.269-9.602l-8.578-11.282H624.821v141.428v3.2h106.347
			c10.348-7.064,22.857-11.2,36.337-11.2c13.48,0,25.984,4.136,36.337,11.2h88.741v-62.118
			C863.822,339.966,862.18,321.497,862.18,308.441"/>
		<polygon fill="#848789" points="750.18,148.111 624.821,148.111 624.821,257.456 833.332,257.456 		"/>
		<path fill="#B73750" d="M731.168,402.084H624.821v26.672h83.908C713.648,417.943,721.447,408.717,731.168,402.084"/>
		<path fill="#DB495E" d="M624.821,455.423h78.143c0-9.512,2.07-18.54,5.771-26.669h-83.91L624.821,455.423L624.821,455.423z"/>
		<path fill="#B73750" d="M899.519,412.217l-6.934-10.133H803.84c9.718,6.634,17.521,15.856,22.438,26.672h72.186
			C899.72,423.729,900.279,418.18,899.519,412.217"/>
		<path fill="#DB495E" d="M826.276,428.756c3.692,8.127,5.77,17.155,5.77,26.669h50.938c0,0,11.438-10.556,15.479-26.669H826.276z"
			/>
		<path fill="#D8A93F" d="M870.301,293.784c10.517,2.577,17.404,7.368,21.924,12.368c-1.283-5.777-6.924-22.146-30.045-27.813
			v30.104c0,8.379,0.69,18.975,8.771,25.502c-0.548-3.444-0.648-6.907-0.648-10.062L870.301,293.784L870.301,293.784z"/>
		<path fill="#FFD366" d="M892.585,308.208c0,0-0.073-0.769-0.36-2.056c-4.52-5.002-11.407-9.793-21.924-12.369v30.102
			c0,3.149,0.104,6.612,0.648,10.06c4.514,3.646,11.326,6.021,21.636,6.021V308.208z"/>
		<rect x="605.088" y="402.083" fill="#474946" width="19.733" height="53.341"/>
		<polygon fill="#B76215" points="705.896,46.846 197.239,46.846 165.038,46.846 139.746,83.867 705.896,83.867 		"/>
		<path fill="#D3DBE5" d="M263.981,455.423c0,13.551-10.983,24.537-24.534,24.537c-13.551,0-24.537-10.986-24.537-24.537
			s10.985-24.535,24.537-24.535C252.998,430.888,263.981,441.873,263.981,455.423"/>
		<path fill="#D3DBE5" d="M414.399,455.423c0,13.551-10.986,24.537-24.538,24.537c-13.555,0-24.538-10.986-24.538-24.537
			s10.983-24.535,24.538-24.535C403.413,430.888,414.399,441.873,414.399,455.423"/>
		<path fill="#D3DBE5" d="M792.04,455.423c0,13.551-10.985,24.537-24.535,24.537c-13.552,0-24.537-10.986-24.537-24.537
			s10.985-24.535,24.537-24.535C781.055,430.888,792.04,441.873,792.04,455.423"/>
		<path fill="#848789" d="M654.778,279.627h43.941c2.111,0,3.82,1.71,3.82,3.818c0,2.111-1.709,3.824-3.82,3.824h-43.941
			c-2.11,0-3.819-1.713-3.819-3.824C650.959,281.337,652.668,279.627,654.778,279.627"/>
		<path fill="#474946" d="M654.778,275.807h43.941c2.111,0,3.82,1.71,3.82,3.82c0,2.109-1.709,3.821-3.82,3.821h-43.941
			c-2.11,0-3.819-1.712-3.819-3.821C650.959,277.517,652.668,275.807,654.778,275.807"/>
		<path fill="#474946" d="M62.283,151.345c-3.489,1.561-6.621,4.069-8.975,7.449c-3.606,5.172-4.664,11.35-3.441,17.013
			c-2.831,1.813-5.366,4.201-7.411,7.14c-8.033,11.527-5.562,27.168,5.397,35.418C70.393,178.991,62.283,151.345,62.283,151.345"/>
		<path fill="#FFD366" d="M62.827,116.303c-2.83,0.666-5.45,2.338-7.254,4.928c-3.847,5.52-2.562,13.063,2.87,16.849
			c0.644,0.447,1.316,0.818,2.008,1.12c-2.089,4.062-1.33,8.984,1.832,12.145c0,0,8.111,27.646-14.43,67.022l57.303-83.873
			C92.961,118.372,62.827,116.303,62.827,116.303"/>
		<path fill="#FFD366" d="M120.882,83.865c14.535-21.995-2.833-20.738-2.833-20.738c-8.34-4.128-18.74-1.558-24.304,6.427
			c-3.659,5.25-4.395,11.647-2.552,17.235C91.193,86.79,106.346,105.859,120.882,83.865"/>
		<path fill="#474946" d="M162.74,42.729c-8.147-5.676-19.43-3.567-25.197,4.71c-0.679,0.974-1.249,1.99-1.716,3.035
			c-0.223-0.185-0.449-0.367-0.691-0.536c-5.062-3.528-12.072-2.218-15.658,2.927c-2.18,3.127-2.581,6.95-1.429,10.261
			c0,0,17.368-1.257,2.833,20.738c-14.535,21.994-29.69,2.922-29.69,2.922c-9.22-3.794-20.234-0.741-26.259,7.903
			c-4.606,6.614-5.132,14.833-2.107,21.614c0,0,30.134,2.068,42.329,18.19l34.591-50.629l25.292-37.021h1.871
			C165.779,45.293,164.402,43.885,162.74,42.729"/>
		<polygon fill="#474946" points="47.692,479.96 145.836,479.96 156.504,455.425 47.692,455.425 		"/>
		<polygon fill="#FE9428" points="705.896,102.32 705.896,83.865 591.152,83.865 605.086,102.32 		"/>
		<path fill="#FE9428" d="M591.151,83.865H139.746L47.692,218.598v44.804v192.021h108.812h18.402
			c0-35.645,28.896-64.539,64.54-64.539s64.542,28.896,64.542,64.539h21.335c0-35.645,28.895-64.539,64.539-64.539
			s64.542,28.896,64.542,64.539H605.09v-56.539V102.32L591.151,83.865z"/>
		<path fill="#2D2620" d="M44.688,192.841c0,0-0.132,1.06-0.195,2.522c-0.034,0.732-0.013,1.564,0.037,2.428
			c0.115,0.854,0.187,1.761,0.496,2.598c0.209,0.872,0.627,1.659,1.015,2.417c0.207,0.372,0.463,0.705,0.668,1.056
			c0.2,0.355,0.486,0.618,0.693,0.921c0.425,0.6,0.875,1.033,1.159,1.387c0.292,0.348,0.454,0.569,0.454,0.569
			s-0.252-0.06-0.693-0.207c-0.43-0.158-1.088-0.344-1.748-0.809c-0.33-0.229-0.746-0.417-1.065-0.763
			c-0.334-0.329-0.74-0.638-1.045-1.06c-0.283-0.432-0.681-0.83-0.891-1.343c-0.233-0.501-0.498-1.002-0.636-1.551
			c-0.168-0.541-0.25-1.093-0.313-1.64c-0.088-0.544-0.013-1.086-0.009-1.598c0.109-1.023,0.341-1.948,0.664-2.688
			C43.886,193.59,44.688,192.841,44.688,192.841"/>
		<path fill="#D8A93F" d="M99.261,77.82c0,0,0.057-0.817,0.574-1.857c0.225-0.539,0.603-1.095,1.038-1.672
			c0.427-0.587,1.037-1.083,1.604-1.614l1.005-0.619c0.335-0.198,0.653-0.399,1.026-0.496c0.355-0.126,0.713-0.208,1.043-0.291
			c0.335-0.068,0.628-0.184,0.945-0.144c1.231,0.038,1.957,0.283,1.957,0.283s-0.707,0.502-1.616,0.921
			c-0.236,0.083-0.448,0.323-0.698,0.46c-0.243,0.162-0.488,0.339-0.759,0.481c-0.281,0.114-0.496,0.402-0.772,0.566l-0.805,0.569
			c-0.515,0.432-1.062,0.827-1.566,1.227c-0.493,0.417-1.004,0.77-1.428,1.108C99.943,77.383,99.261,77.82,99.261,77.82"/>
		<path fill="#D8A93F" d="M67.646,137.092c0,0,0.532-0.469,1.489-0.716c0.474-0.121,1.052-0.212,1.678-0.161
			c0.628,0.021,1.296,0.207,1.936,0.483c0.617,0.323,1.225,0.721,1.627,1.257c0.236,0.231,0.383,0.521,0.522,0.786
			c0.159,0.251,0.246,0.519,0.304,0.774c0.29,0.984,0.039,1.68,0.076,1.666c-0.026,0.016-0.512-0.488-1.15-1.023
			c-0.308-0.28-0.681-0.548-1.064-0.801c-0.179-0.142-0.398-0.24-0.599-0.362c-0.191-0.136-0.423-0.222-0.642-0.324
			c-0.866-0.437-1.885-0.747-2.71-1.047C68.288,137.35,67.646,137.092,67.646,137.092"/>
		<path fill="#2D2620" d="M90.22,119.923c0,0,1.091-0.334,2.583-0.883c0.75-0.268,1.592-0.623,2.471-1.009
			c0.858-0.428,1.779-0.848,2.604-1.418c0.873-0.495,1.641-1.137,2.362-1.746c0.373-0.294,0.676-0.636,0.999-0.938
			c0.327-0.301,0.603-0.618,0.859-0.916c0.546-0.576,0.949-1.115,1.25-1.494c0.309-0.374,0.509-0.589,0.509-0.589
			s-0.026,0.276-0.112,0.766c-0.085,0.49-0.216,1.201-0.584,1.98c-0.159,0.402-0.342,0.84-0.63,1.246
			c-0.272,0.415-0.521,0.896-0.91,1.282c-0.37,0.402-0.716,0.868-1.183,1.207c-0.436,0.38-0.9,0.739-1.399,1.046
			c-0.492,0.324-1.023,0.56-1.538,0.813c-0.515,0.25-1.065,0.39-1.575,0.564c-1.046,0.278-2.04,0.428-2.895,0.433
			C91.318,120.327,90.22,119.923,90.22,119.923"/>
		<path fill="#2D2620" d="M136.872,54.512c0,0,0.382,0.892,0.959,2.23c0.304,0.637,0.626,1.37,1.035,2.104
			c0.169,0.383,0.45,0.718,0.637,1.104c0.252,0.344,0.456,0.736,0.745,1.052c0.257,0.342,0.506,0.693,0.813,0.977
			c0.284,0.31,0.567,0.612,0.882,0.862c0.604,0.529,1.228,1,1.823,1.336c0.577,0.382,1.11,0.64,1.495,0.833
			c0.38,0.205,0.605,0.344,0.605,0.344c0.014-0.056-1.005,0.3-2.537-0.003c-0.39-0.053-0.808-0.142-1.217-0.332
			c-0.423-0.163-0.886-0.325-1.29-0.621c-0.881-0.485-1.655-1.257-2.313-2.084c-0.626-0.858-1.121-1.796-1.406-2.724
			c-0.318-0.916-0.442-1.81-0.486-2.567C136.532,55.5,136.872,54.512,136.872,54.512"/>
		<path fill="#FFFFFF" d="M657.614,449.434h-23.986c-2.11,0-3.821-1.714-3.821-3.816c0-2.109,1.711-3.823,3.821-3.823h23.986
			c2.104,0,3.815,1.714,3.815,3.823C661.435,447.72,659.723,449.434,657.614,449.434"/>
		<path fill="#FFFFFF" d="M676.509,449.434h-10.176c-2.11,0-3.82-1.714-3.82-3.816c0-2.109,1.71-3.823,3.82-3.823h10.176
			c2.11,0,3.819,1.714,3.819,3.823C680.328,447.72,678.619,449.434,676.509,449.434"/>
		<path fill="#FFFFFF" d="M395.243,108.947H284.771c-2.11,0-3.82-1.712-3.82-3.821c0-2.11,1.71-3.822,3.82-3.822h110.471
			c2.105,0,3.822,1.712,3.822,3.822C399.065,107.235,397.353,108.947,395.243,108.947"/>
		<path fill="#FFFFFF" d="M439.577,108.947h-25.178c-2.11,0-3.823-1.712-3.823-3.821c0-2.11,1.712-3.822,3.823-3.822h25.178
			c2.106,0,3.822,1.712,3.822,3.822C443.399,107.235,441.688,108.947,439.577,108.947"/>
		<path fill="#FFFFFF" d="M67.646,323.973c-2.11,0-3.821-1.713-3.821-3.817v-90.21c0-2.109,1.711-3.821,3.821-3.821
			s3.821,1.712,3.821,3.821v90.21C71.466,322.26,69.755,323.973,67.646,323.973"/>
		<path fill="#FFFFFF" d="M67.646,356.68c-2.11,0-3.821-1.715-3.821-3.821v-16.716c0-2.107,1.711-3.821,3.821-3.821
			s3.821,1.714,3.821,3.821v16.716C71.466,354.965,69.755,356.68,67.646,356.68"/>
		<polygon fill="#91D4DA" points="781.839,227.713 752.096,257.455 767.707,257.455 788.227,236.937 		"/>
		<polygon fill="#91D4DA" points="727.627,149.451 650.959,226.12 650.959,241.732 734.017,158.673 		"/>
		<polygon fill="#91D4DA" points="802.44,257.456 798.056,251.126 791.727,257.456 		"/>
		<polygon fill="#B4EEEF" points="743.846,172.863 734.017,158.673 650.959,241.732 650.959,257.456 659.253,257.456 
			682.072,257.456 753.182,186.344 		"/>
		<polygon fill="#B4EEEF" points="798.056,251.126 788.229,236.937 767.707,257.455 791.727,257.455 		"/>
		<polygon fill="#91D4DA" points="772.01,213.524 763.011,200.533 753.182,186.344 682.072,257.456 706.089,257.456 
			728.077,257.456 752.096,257.456 781.838,227.713 		"/>
		<polygon fill="#B4EEEF" points="726.699,148.111 704.948,148.111 685.51,148.111 661.49,148.111 650.959,148.111 650.959,158.643 
			650.959,182.66 650.959,202.102 650.959,226.12 727.627,149.451 		"/>
		<g display="none">
			<g display="inline">
				<path fill="#2D2D2D" d="M223.82,147.251h-24.405v92.816h-14.083v-23.924c-9.335,6.296-19.417,9.443-30.246,9.443
					c-9.709,0-17.842-2.455-24.404-7.363c-6.935-5.174-10.402-11.948-10.402-20.324c0-3.68,0.973-7.265,2.92-10.76
					c1.948-3.495,4.494-5.962,7.641-7.403c-9.068-2.612-13.602-8.747-13.602-18.402c0-5.067,2.026-9.761,6.081-14.082H107V134.45
					h116.82V147.251z M185.333,201.661v-54.41h-46.567c-4.961,3.68-7.441,8.001-7.441,12.962c0,7.949,5.626,11.921,16.883,11.921
					h12.481v11.602h-12.481c-3.629,0-6.75,1.227-9.363,3.68c-2.88,2.722-4.321,6.216-4.321,10.482c0,4.749,2.267,8.511,6.802,11.283
					c3.893,2.4,8.481,3.6,13.761,3.6C164.582,212.781,174.664,209.074,185.333,201.661z"/>
				<path fill="#2D2D2D" d="M203.496,100.122l-11.121,11.122l-11.202-11.122L192.375,89L203.496,100.122z"/>
				<path fill="#2D2D2D" d="M317.917,147.251H284.15v30.245h-14.163c-20.216,0-30.324,7.416-30.324,22.242
					c0,7.683,2.72,13.979,8.159,18.885c5.283,4.693,11.869,7.043,19.765,7.043c9.067,0,17.975-3.949,26.725-11.844l10.001,10.002
					c-10.135,10.401-22.592,15.602-37.367,15.602c-11.096,0-20.723-3.654-28.884-10.963c-8.375-7.466-12.563-16.507-12.563-27.123
					c0-12.749,3.947-22.298,11.841-28.646c6.935-5.602,16.376-8.401,28.326-8.401h4.401v-17.042h-52.01v-12.802h99.858v12.802
					H317.917z"/>
				<path fill="#2D2D2D" d="M360.643,147.251H336.24v92.816h-14.082v-92.816h-10.003v-12.802h48.486L360.643,147.251
					L360.643,147.251z"/>
			</g>
			<g display="inline">
				<path fill="#2D2D2D" d="M415.77,283.209H391.29v92.816h-14.083v-92.816H349.84v42.088c0,9.551-1.935,16.734-5.802,21.563
					c-3.868,4.828-10.069,7.239-18.604,7.239c-3.146,0-5.987-0.53-8.521-1.603c-2.534-1.065-4.708-2.571-6.521-4.521
					c-1.813-1.945-3.215-4.296-4.199-7.041c-0.988-2.746-1.481-5.826-1.481-9.24c0-2.826,0.561-5.469,1.681-7.922
					c1.121-2.451,2.667-4.591,4.643-6.399c1.973-1.815,4.278-3.239,6.921-4.28c2.64-1.041,5.479-1.562,8.521-1.562
					c1.548,0,3.096,0.12,4.643,0.357c1.546,0.239,3.093,0.573,4.641,1v-29.687h-39.847V270.4h119.859L415.77,283.209L415.77,283.209
					z M335.756,324.658c-1.494-0.533-2.989-0.96-4.48-1.281c-1.493-0.32-3.096-0.479-4.802-0.479c-1.278,0-2.507,0.233-3.681,0.718
					c-1.174,0.479-2.201,1.12-3.081,1.92c-0.879,0.8-1.573,1.732-2.08,2.801c-0.507,1.071-0.76,2.188-0.76,3.36
					c0,1.276,0.226,2.468,0.68,3.563c0.453,1.094,1.081,2.039,1.88,2.838c0.802,0.806,1.723,1.433,2.763,1.883
					c1.041,0.453,2.12,0.684,3.239,0.684c1.866,0,3.453-0.24,4.763-0.72c1.306-0.48,2.373-1.334,3.198-2.563
					c0.826-1.229,1.428-2.868,1.803-4.921C335.568,330.404,335.756,327.805,335.756,324.658z"/>
				<path fill="#2D2D2D" d="M458.497,283.209h-24.404v92.816H420.01v-92.816h-10.001v-12.803h48.488V283.209z"/>
				<path fill="#2D2D2D" d="M548.273,283.209H526.75v26.564h-42.649c-2.347,0-4.334,0.823-5.959,2.479
					c-1.629,1.656-2.438,3.655-2.438,6.003c0,2.882,1.28,5.149,3.842,6.802c2.188,1.392,4.8,2.078,7.842,2.078
					c2.613,0,5.604-0.41,8.96-1.235c3.363-0.826,6.354-1.237,8.964-1.237c7.571,0,13.868,1.941,18.886,5.84
					c5.276,4.106,7.922,9.629,7.922,16.563c0,10.084-4.028,17.925-12.082,23.521c-7.099,4.909-15.922,7.359-26.485,7.359
					c-15.574,0-27.844-4.906-36.804-14.726l9.2-8.319c6.294,6.937,15.493,10.399,27.604,10.399c6.456,0,12.084-1.227,16.886-3.679
					c5.923-3.042,8.886-7.416,8.886-13.124c0-3.361-1.393-6.188-4.161-8.479c-2.668-2.137-5.711-3.201-9.122-3.201
					c-2.508,0-5.254,0.429-8.24,1.274c-2.99,0.856-5.732,1.283-8.242,1.283c-17.552,0-26.323-6.988-26.323-20.964
					c0-7.472,2.771-13.099,8.319-16.884c3.896-2.668,8.028-4.004,12.4-4.004h28.728v-14.319h-59.771v-12.803h95.377v12.803
					L548.273,283.209L548.273,283.209z"/>
				<path fill="#2D2D2D" d="M591,283.209h-24.323v92.816h-14.083v-92.816h-10.082v-12.803h5.281
					c-10.829-17.175-19.39-25.764-25.685-25.764c-7.361,0-11.04,3.281-11.04,9.841c0,3.041,3.488,9.869,10.479,20.482l-10.724,6.642
					c-8.532-12.268-12.805-21.628-12.805-28.082c0-6.35,1.948-11.471,5.845-15.363c4.104-4.108,9.763-6.162,16.962-6.162
					c8.535,0,17.098,4.774,25.687,14.323c3.896,4.32,9.573,12.349,17.043,24.083H591V283.209z"/>
			</g>
		</g>
		<g>
			<path stroke="#000000" stroke-miterlimit="10" d="M164.917,219.912v35.791l-2.646,3.206c-0.102,0-0.102,0-0.203,0.178
				c-0.102,0.178-0.305,0.356-0.407,0.356c-0.102,0.178-0.204,0.355-0.305,0.355c-0.102,0.179-0.204,0.356-0.407,0.356
				c-0.102,0.178-0.203,0.355-0.407,0.535c-0.102,0.178-0.204,0.178-0.305,0.355c-0.102,0.178-0.204,0.178-0.305,0.356
				c-0.204,0.178-0.305,0.178-0.509,0.355c-0.102,0.178-0.204,0.178-0.305,0.356c-0.102,0.178-0.305,0.356-0.509,0.356
				c-0.102,0.178-0.102,0.178-0.204,0.355c-0.102,0-0.102,0-0.204,0c-0.102,0.178-0.305,0.356-0.509,0.535
				c-0.203,0.178-0.508,0.356-0.712,0.534c0,0,0,0-0.102,0.178c-4.273,3.383-8.75,5.164-13.532,5.699c0,0,0,0-0.102,0
				c-0.204,0-0.509,0-0.814,0h-0.102c-0.305,0-0.61,0-0.916,0c-4.069,0-8.14-1.069-11.904-3.383c-0.102,0-0.102,0-0.102,0
				c-0.407-0.178-0.712-0.535-1.119-0.711c-0.509-0.356-1.018-0.712-1.526-1.069c-1.322-0.891-2.543-1.958-3.663-3.205
				c-3.052-2.85-5.901-6.588-8.343-11.041c-3.459-6.054-6.207-12.999-8.14-21.013c-1.424-6.054-2.442-12.465-2.747-19.053
				c-0.102-2.138-0.204-4.452-0.204-6.588c0-1.069,0-2.315,0-3.383c0.305-7.657,1.221-15.314,2.951-22.437
				c1.933-7.835,4.681-14.958,8.14-21.012c3.459-6.055,7.428-10.863,12.006-14.067c4.579-3.561,9.564-5.164,14.651-5.164
				c0.306,0,0.611,0,0.916,0h0.102c0.305,0,0.61,0,0.814,0c0.102,0,0.102,0,0.102,0c0.305,0,0.61,0,0.916,0.178
				c4.375,0.535,8.648,2.316,12.718,5.521c0,0,0,0.178,0.102,0.178c0.204,0.178,0.407,0.356,0.61,0.535c0.102,0,0.102,0,0.102,0
				v24.396c-1.526-2.315-3.256-4.096-5.087-5.698c-1.526-1.247-3.154-2.315-4.68-3.027c-0.102,0-0.204,0-0.305-0.179
				c-0.102,0-0.204,0-0.305,0c-0.102-0.178-0.204-0.178-0.407-0.178c0,0-0.102,0-0.204-0.178c-0.407-0.178-0.916-0.178-1.322-0.356
				c-0.102,0-0.102,0-0.204,0c-0.102,0-0.305-0.178-0.407-0.178s-0.102,0-0.204,0s-0.305,0-0.407-0.178c-0.102,0-0.204,0-0.305,0
				c-0.204,0-0.407,0-0.61,0c-0.102,0-0.204-0.178-0.306-0.178s-0.203,0-0.305,0c-0.102,0-0.305,0-0.407,0s-0.204,0-0.204,0
				c-0.204,0-0.509,0-0.712,0c-4.782,0-9.36,2.138-13.329,6.411c-0.102,0.178-0.305,0.356-0.508,0.534
				c-1.628,1.78-3.154,3.918-4.477,6.41c-0.407,0.712-0.916,1.425-1.323,2.315c0,0,0,0.178-0.102,0.178
				c-0.509,1.069-0.916,2.136-1.323,3.205c-0.102,0.178-0.204,0.356-0.204,0.356c-0.204,0.535-0.407,1.069-0.61,1.603
				c-0.102,0.178-0.204,0.535-0.204,0.711c-1.526,4.274-2.543,8.726-3.154,13.534c-0.102,0.178-0.102,0.178-0.102,0.356
				c-0.204,1.781-0.407,3.561-0.509,5.342c0,0.711,0,1.424,0,1.958c-0.102,0.891-0.102,1.603-0.102,2.494
				c0,0.711,0,1.425,0.102,2.315c0.102,3.383,0.407,6.767,0.916,9.973c1.221,7.479,3.459,14.245,6.613,19.766
				c4.884,8.547,11.396,13.354,18.314,13.354c0.204,0,0.509,0,0.712,0c0.102,0,0.204,0,0.305-0.178c0.102,0,0.305,0,0.407,0
				s0.203,0,0.305,0s0.204,0,0.305,0c0.204,0,0.305,0,0.509,0c0-0.178,0.102-0.178,0.204-0.178s0.305,0,0.407,0s0.102,0,0.204,0
				c0.712-0.178,1.526-0.534,2.238-0.712c0.102,0,0.102,0,0.204-0.178c0.102,0,0.305,0,0.407-0.178c0.102,0,0.204,0,0.305,0
				c0.102-0.178,0.204-0.178,0.306-0.178c0.102-0.178,0.305-0.178,0.407-0.178s0.204-0.178,0.204-0.178
				c1.424-0.713,2.849-1.603,4.171-2.85c0,0,0,0,0.102,0v-24.396H138.87v-18.697h26.047V219.912L164.917,219.912z"/>
			<path stroke="#000000" stroke-miterlimit="10" d="M224.232,241.458h-26.861l-6.41,28.313h-13.023l32.864-138.181l32.762,138.181
				h-12.921L224.232,241.458z M219.959,222.939l-9.157-40.244l-9.157,40.244H219.959z"/>
			<path stroke="#000000" stroke-miterlimit="10" d="M311.935,269.771h-13.329l-19.026-44.695h-8.648v44.695h-11.803V137.644h9.971
				h12.413c9.971,0,15.771,7.122,18.823,13.177c3.968,7.657,6.105,18.341,6.105,30.628c0,12.109-2.137,22.793-6.105,30.45
				c-1.832,3.561-4.68,7.657-8.75,10.15L311.935,269.771z M281.513,206.556c4.884,0,8.546-2.492,10.887-7.122
				c2.849-5.341,3.357-12.821,3.357-17.985c0-5.342-0.509-12.821-3.357-18.163c-2.34-4.63-6.003-6.944-10.887-6.944h-10.582v50.215
				H281.513L281.513,206.556z"/>
			<path stroke="#000000" stroke-miterlimit="10" d="M374.1,230.596c0,6.588-0.814,12.464-2.442,17.806
				c-1.628,4.985-3.968,9.26-6.919,12.643c-5.189,5.699-12.209,8.726-20.756,8.726h-6.715h-9.971V137.644H339.1h4.884
				c8.343,0,14.448,2.671,18.721,8.191c2.34,3.027,4.07,6.945,5.189,11.396c1.018,4.096,1.526,8.726,1.526,13.89
				c0,7.122-1.323,15.848-5.901,24.218c1.221,1.424,2.34,3.027,3.459,4.808c2.239,3.918,3.968,8.192,5.189,12.999
				C373.489,218.487,374.1,224.363,374.1,230.596z M339.1,156.164v40.065c2.34-0.891,5.087-2.315,7.732-4.274
				c3.765-2.671,6.715-5.698,8.75-9.259c2.137-3.561,3.154-7.301,3.154-11.574c0-6.411-1.323-8.904-2.442-10.328
				c-2.849-3.739-8.343-4.63-12.311-4.63H339.1z M363.519,230.596c0-6.945-1.323-12.465-3.968-16.917
				c-1.526-2.671-3.459-4.808-5.799-6.588c-1.018,0.711-2.035,1.603-3.154,2.315c-4.171,3.027-8.343,4.808-11.497,6.054v35.614
				h4.884c6.41,0,11.599-1.958,14.957-5.698C362.094,241.815,363.519,237.186,363.519,230.596z"/>
			<path stroke="#000000" stroke-miterlimit="10" d="M431.688,241.458h-26.861l-6.41,28.313h-13.023l32.864-138.181l32.762,138.181
				h-12.921L431.688,241.458z M427.414,222.939l-9.157-40.244l-9.157,40.244H427.414z"/>
			<path stroke="#000000" stroke-miterlimit="10" d="M520.815,219.912v35.791l-2.646,3.206c-0.102,0-0.102,0-0.204,0.178
				c-0.102,0.178-0.305,0.356-0.406,0.356c-0.103,0.178-0.203,0.355-0.306,0.355c-0.102,0.179-0.203,0.356-0.407,0.356
				c-0.102,0.178-0.203,0.355-0.406,0.535c-0.103,0.178-0.203,0.178-0.306,0.355c-0.102,0.178-0.203,0.178-0.306,0.356
				c-0.203,0.178-0.305,0.178-0.509,0.355c-0.103,0.178-0.203,0.178-0.306,0.356c-0.102,0.178-0.306,0.356-0.509,0.356
				c-0.102,0.178-0.102,0.178-0.203,0.355c-0.103,0-0.103,0-0.204,0c-0.102,0.178-0.305,0.356-0.509,0.535
				c-0.203,0.178-0.509,0.356-0.712,0.534c0,0,0,0-0.102,0.178c-4.273,3.383-8.75,5.164-13.532,5.699c0,0,0,0-0.102,0
				c-0.204,0-0.51,0-0.814,0h-0.102c-0.307,0-0.61,0-0.916,0c-4.069,0-8.141-1.069-11.904-3.383c-0.103,0-0.103,0-0.103,0
				c-0.406-0.178-0.712-0.535-1.118-0.711c-0.51-0.356-1.019-0.712-1.526-1.069c-1.322-0.891-2.543-1.958-3.662-3.205
				c-3.053-2.85-5.901-6.588-8.344-11.041c-3.459-6.054-6.207-12.999-8.14-21.013c-1.425-6.054-2.442-12.465-2.747-19.053
				c-0.103-2.138-0.204-4.452-0.204-6.588c0-1.069,0-2.315,0-3.383c0.305-7.657,1.221-15.314,2.95-22.437
				c1.934-7.835,4.682-14.958,8.141-21.012c3.459-6.055,7.428-10.863,12.006-14.067c4.579-3.561,9.564-5.164,14.651-5.164
				c0.306,0,0.609,0,0.916,0h0.102c0.306,0,0.61,0,0.814,0c0.102,0,0.102,0,0.102,0c0.305,0,0.61,0,0.915,0.178
				c4.376,0.535,8.648,2.316,12.719,5.521c0,0,0,0.178,0.103,0.178c0.203,0.178,0.406,0.356,0.609,0.535c0.103,0,0.103,0,0.103,0
				v24.396c-1.525-2.315-3.256-4.096-5.087-5.698c-1.526-1.247-3.154-2.315-4.682-3.027c-0.102,0-0.203,0-0.305-0.179
				c-0.102,0-0.204,0-0.306,0c-0.103-0.178-0.203-0.178-0.406-0.178c0,0-0.104,0-0.204-0.178c-0.407-0.178-0.915-0.178-1.322-0.356
				c-0.102,0-0.102,0-0.204,0c-0.102,0-0.305-0.178-0.405-0.178c-0.104,0-0.104,0-0.204,0c-0.102,0-0.306,0-0.407-0.178
				c-0.102,0-0.203,0-0.305,0c-0.203,0-0.407,0-0.61,0c-0.102,0-0.204-0.178-0.306-0.178c-0.103,0-0.203,0-0.306,0
				c-0.102,0-0.306,0-0.406,0c-0.102,0-0.203,0-0.203,0c-0.204,0-0.51,0-0.713,0c-4.782,0-9.36,2.138-13.328,6.411
				c-0.104,0.178-0.307,0.356-0.51,0.534c-1.628,1.78-3.153,3.918-4.477,6.41c-0.407,0.712-0.916,1.425-1.323,2.315
				c0,0,0,0.178-0.102,0.178c-0.509,1.069-0.916,2.136-1.323,3.205c-0.102,0.178-0.203,0.356-0.203,0.356
				c-0.203,0.535-0.407,1.069-0.609,1.603c-0.103,0.178-0.203,0.535-0.203,0.711c-1.526,4.274-2.544,8.726-3.154,13.534
				c-0.102,0.178-0.102,0.178-0.102,0.356c-0.204,1.781-0.407,3.561-0.51,5.342c0,0.711,0,1.424,0,1.958
				c-0.103,0.891-0.103,1.603-0.103,2.494c0,0.711,0,1.425,0.103,2.315c0.103,3.383,0.406,6.767,0.915,9.973
				c1.223,7.479,3.46,14.245,6.614,19.766c4.883,8.547,11.396,13.354,18.313,13.354c0.203,0,0.509,0,0.713,0
				c0.102,0,0.203,0,0.305-0.178c0.102,0,0.306,0,0.407,0c0.101,0,0.203,0,0.305,0c0.104,0,0.204,0,0.306,0c0.203,0,0.307,0,0.51,0
				c0-0.178,0.102-0.178,0.203-0.178c0.101,0,0.306,0,0.406,0c0.102,0,0.103,0,0.203,0c0.713-0.178,1.526-0.534,2.239-0.712
				c0.102,0,0.102,0,0.203-0.178c0.102,0,0.305,0,0.407-0.178c0.102,0,0.203,0,0.305,0c0.102-0.178,0.204-0.178,0.306-0.178
				c0.103-0.178,0.306-0.178,0.407-0.178s0.203-0.178,0.203-0.178c1.425-0.713,2.849-1.603,4.172-2.85c0,0,0,0,0.102,0v-24.396
				h-14.243v-18.697h26.047L520.815,219.912L520.815,219.912z"/>
			<path stroke="#000000" stroke-miterlimit="10" d="M551.132,191.421h27.573v18.697h-27.573v40.955h33.476v18.697H551.03h-11.7
				V137.644h11.7h33.576v18.52h-33.476L551.132,191.421L551.132,191.421z"/>
		</g>
		<g>
			<path stroke="#000000" stroke-miterlimit="10" d="M136.064,355.186c-1.004,0.947-2.061,1.816-3.169,2.527
				c-2.43,1.501-5.019,2.291-7.66,2.291s-5.229-0.79-7.607-2.291c-2.377-1.501-4.437-3.634-6.233-6.319s-3.222-5.767-4.226-9.32
				c-1.003-3.556-1.532-7.426-1.532-11.375c0-3.95,0.528-7.821,1.532-11.455c1.004-3.477,2.43-6.635,4.226-9.321
				c1.796-2.686,3.856-4.818,6.233-6.24c2.377-1.58,4.966-2.291,7.607-2.291c2.642,0,5.23,0.711,7.66,2.291
				c0.264,0.158,0.581,0.396,0.845,0.553v10.822c-2.377-2.923-5.335-4.503-8.505-4.503c-3.592,0-6.973,2.056-9.508,5.925
				c-2.536,3.793-3.962,8.849-3.962,14.221c0,5.371,1.426,10.427,3.962,14.219s5.917,5.925,9.508,5.925
				c3.592,0,6.973-2.133,9.509-5.925c0.476-0.711,0.898-1.422,1.321-2.212L136.064,355.186L136.064,355.186z"/>
			<path stroke="#000000" stroke-miterlimit="10" d="M155.658,357.713c-2.377-1.501-4.438-3.634-6.233-6.319
				c-1.796-2.686-3.223-5.767-4.226-9.32c-1.004-3.556-1.532-7.426-1.532-11.375c0-3.95,0.528-7.821,1.532-11.455
				c1.003-3.477,2.43-6.556,4.226-9.321c1.796-2.686,3.856-4.738,6.233-6.24c2.377-1.5,4.965-2.291,7.607-2.291
				c2.641,0,5.229,0.791,7.66,2.291c2.324,1.502,4.384,3.556,6.233,6.24c1.796,2.766,3.169,5.846,4.173,9.321
				c1.003,3.634,1.532,7.505,1.532,11.455c0,3.949-0.528,7.819-1.532,11.375c-1.004,3.555-2.377,6.636-4.173,9.32
				c-1.849,2.687-3.909,4.818-6.233,6.319c-2.43,1.501-5.019,2.291-7.66,2.291C160.623,360.004,158.035,359.214,155.658,357.713z
				 M153.756,316.478c-2.536,3.792-3.962,8.849-3.962,14.221c0,5.371,1.426,10.427,3.962,14.219
				c2.536,3.792,5.917,5.925,9.509,5.925c3.592,0,6.973-2.133,9.508-5.925s3.962-8.848,3.962-14.219
				c0-5.372-1.427-10.429-3.962-14.221c-2.536-3.79-5.917-5.925-9.508-5.925C159.672,310.553,156.292,312.688,153.756,316.478z"/>
			<path stroke="#000000" stroke-miterlimit="10" d="M215.449,360.004H199.02h-6.075v-58.613h6.127v50.318h16.376L215.449,360.004
				L215.449,360.004z"/>
			<path stroke="#000000" stroke-miterlimit="10" d="M245.608,360.004h-16.429h-6.075v-58.613h6.127v50.318h16.376L245.608,360.004
				L245.608,360.004z"/>
			<path stroke="#000000" stroke-miterlimit="10" d="M259.39,325.246h14.316v8.295H259.39v18.168h17.38v8.295h-17.433h-6.075
				v-58.613h6.075h17.433v8.216h-17.38V325.246z"/>
			<path stroke="#000000" stroke-miterlimit="10" d="M314.113,355.186c-1.004,0.947-2.061,1.816-3.169,2.527
				c-2.43,1.501-5.019,2.291-7.66,2.291c-2.641,0-5.229-0.79-7.607-2.291c-2.377-1.501-4.437-3.634-6.233-6.319
				c-1.796-2.686-3.222-5.767-4.226-9.32c-1.003-3.556-1.532-7.426-1.532-11.375c0-3.95,0.528-7.821,1.532-11.455
				c1.004-3.477,2.43-6.635,4.226-9.321c1.796-2.686,3.856-4.818,6.233-6.24c2.377-1.58,4.966-2.291,7.607-2.291
				c2.642,0,5.23,0.711,7.66,2.291c0.264,0.158,0.581,0.396,0.845,0.553v10.822c-2.377-2.923-5.335-4.503-8.505-4.503
				c-3.592,0-6.973,2.056-9.508,5.925c-2.536,3.793-3.962,8.849-3.962,14.221c0,5.371,1.426,10.427,3.962,14.219
				c2.536,3.792,5.917,5.925,9.508,5.925c3.592,0,6.973-2.133,9.509-5.925c0.476-0.711,0.898-1.422,1.321-2.212v12.479H314.113z"/>
			<path stroke="#000000" stroke-miterlimit="10" d="M348.655,309.605h-10.776v50.397h-6.181v-50.397h-10.776v-8.217h27.733V309.605
				z"/>
			<path stroke="#000000" stroke-miterlimit="10" d="M357.473,360.004v-58.613h6.127v58.613H357.473L357.473,360.004z"/>
			<path stroke="#000000" stroke-miterlimit="10" d="M385.626,357.713c-2.377-1.501-4.438-3.634-6.233-6.319
				c-1.796-2.686-3.223-5.767-4.226-9.32c-1.004-3.556-1.532-7.426-1.532-11.375c0-3.95,0.528-7.821,1.532-11.455
				c1.003-3.477,2.43-6.556,4.226-9.321c1.796-2.686,3.856-4.738,6.233-6.24c2.377-1.5,4.965-2.291,7.607-2.291
				c2.641,0,5.229,0.791,7.66,2.291c2.324,1.502,4.385,3.556,6.233,6.24c1.796,2.766,3.169,5.846,4.173,9.321
				c1.003,3.634,1.532,7.505,1.532,11.455c0,3.949-0.528,7.819-1.532,11.375c-1.004,3.555-2.377,6.636-4.173,9.32
				c-1.849,2.687-3.909,4.818-6.233,6.319c-2.43,1.501-5.019,2.291-7.66,2.291C390.591,360.004,388.003,359.214,385.626,357.713z
				 M383.724,316.478c-2.536,3.792-3.962,8.849-3.962,14.221c0,5.371,1.426,10.427,3.962,14.219
				c2.536,3.792,5.917,5.925,9.509,5.925c3.592,0,6.973-2.133,9.508-5.925s3.962-8.848,3.962-14.219
				c0-5.372-1.426-10.429-3.962-14.221c-2.536-3.79-5.917-5.925-9.508-5.925C389.641,310.553,386.26,312.688,383.724,316.478z"/>
			<path stroke="#000000" stroke-miterlimit="10" d="M429.042,322.323v37.681h-6.127v-61.379l24.617,40.366v-37.601h6.181v61.3
				L429.042,322.323z"/>
			<path stroke="#000000" stroke-miterlimit="10" d="M499.079,340.019l10.301-38.628h6.656l-16.799,61.221l-17.961-61.221h6.762
				L499.079,340.019z"/>
			<path stroke="#000000" stroke-miterlimit="10" d="M536.476,347.443H522.53l-3.328,12.561h-6.762l17.063-61.3l17.01,61.3h-6.709
				L536.476,347.443z M534.257,339.229l-4.754-17.854l-4.755,17.854H534.257z"/>
			<path stroke="#000000" stroke-miterlimit="10" d="M561.244,322.323v37.681h-6.128v-61.379l24.617,40.366v-37.601h6.181v61.3
				L561.244,322.323z"/>
		</g>
	</g>
</g>
</svg>
