<?xml version="1.0" encoding="utf-8"?>
<!-- Generator: Adobe Illustrator 19.0.0, SVG Export Plug-In . SVG Version: 6.00 Build 0)  -->
<svg version="1.1" id="Layer_1" xmlns="http://www.w3.org/2000/svg" xmlns:xlink="http://www.w3.org/1999/xlink" x="0px" y="0px"
	 viewBox="0 0 424 275.5" style="enable-background:new 0 0 424 275.5;" xml:space="preserve">
<style type="text/css">
	.st0{fill:#FDC06D;}
	.st1{fill:#5297CF;}
	.st2{fill:#EDA659;}
	.st3{fill:#6EACDD;}
	.st4{fill:#4E97D1;}
	.st5{fill:#F05050;}
	.st6{fill:#5097D0;}
	.st7{fill:#3F6788;}
	.st8{fill:#FFFBF6;}
	.st9{fill:#FFFEFE;}
	.st10{fill:#56C6D0;}
	.st11{fill:#CAC9C9;}
</style>
<g id="XMLID_1_">
	<path id="XMLID_66_" class="st0" d="M8,10.6c1.7-2.9,4-4.8,7.6-4.8c34,0.1,68,0.1,102,0.1c0,22.8,0,45.5,0,68.3
		c0,5.1,1.6,6.8,6.6,6.8c18.5,0,37,0,55.5,0c4.5,0,6-1.5,6-6c0-23,0-46.1,0-69.1c22.4,0,44.8,0,67.2,0c0,45.1,0,90.3,0,135.4
		c-1.6,0.1-3.2,0.2-4.8,0.2c-14.9,0-29.8,0-44.7,0c-2,0-4.1-0.2-5.7,1.3c-1.8,1.8-2.9,3.8-1.9,6.4c1.1,3.2,3.5,4.4,6.8,4.4
		c16.8,0,33.5,0.1,50.3,0.1c0,7.6,0,15.3,0,22.9c-14,0-27.9,0.1-41.9,0.1c-3.1,0-6.1-0.1-9.2,0.1c-3.5,0.2-6.5,2.8-6.3,5.9
		c0.1,3.5,2,5.7,5.5,6.3c1.4,0.2,2.9,0.3,4.4,0.3c15.8,0.1,31.7,0.1,47.5,0.1c0,8.8,0,17.7,0,26.5c-1.7,0-3.5,0.1-5.2,0.1
		c-45.7,0-91.5,0.1-137.2,0.1c-1.4-1.7-2.8-3.6-4.3-5.2c-7.4-8-16.7-11.9-27.4-11.5c-12.5,0.4-22.3,6.3-29.3,16.7
		c-13.8-0.1-27.6-0.1-41.4-0.2C8,147.7,8,79.1,8,10.6z"/>
	<path id="XMLID_65_" class="st1" d="M8,216.2c13.8,0.1,27.6,0.1,41.4,0.2c-4,7.2-5.8,14.8-5.4,23c-7.9,0-15.9-0.2-23.8,0
		c-5.8,0.2-10-1.7-12.2-7.2C8,226.9,8,221.5,8,216.2z"/>
	<path id="XMLID_64_" class="st2" d="M252.8,141.4c0-45.1,0-90.3,0-135.4C265.9,5.9,279,5.8,292,5.9c3.6,0,6,2,6.6,5.7
		c0.2,1.7,0.4,3.4,0.4,5.2c0.1,20.4,0.1,40.8,0.2,61.2c0,1.6-0.1,3.2-0.1,4.8c0,37.8,0.1,75.6-0.1,113.4c0,6.9,0.7,13.8-0.6,20.7
		c-13.9,0-27.8,0-41.7,0c-1.3,0-2.7,0.4-3.9-0.5c0-8.8,0-17.7,0-26.5c4.1-0.1,8.3,0,12.4-0.2c4.8-0.3,7.1-2.6,7-6.4
		c-0.1-3.8-2.7-6-7.4-6.1c-4-0.1-8-0.1-12-0.2c0-7.6,0-15.3,0-22.9c4.2,0,8.5,0,12.7-0.2c4-0.1,6.5-2.4,6.6-5.9
		c0.1-3.8-2.2-6.1-6.6-6.2C261.3,141.4,257.1,141.5,252.8,141.4z"/>
	<path id="XMLID_63_" class="st3" d="M298.3,216.8c1.3-6.9,0.6-13.8,0.6-20.7c0.1-37.8,0.1-75.6,0.1-113.4c0-1.6,0.1-3.2,0.1-4.8
		c8.3,0,16.6,0,25,0.1c2.9,1.1,5.2,3,7.4,5.2c4.1,4.3,8.7,8.3,12.6,12.8c3.8,4.3,7.8,7.1,13.7,5.9c1-0.2,2.1-0.2,3,0.6
		c-10.8,0-21.6,0.1-32.4,0.1c-5.6,0-6.9,1.2-6.9,6.7c0,15.6,0,31.2,0,46.8c0,5.8,1.5,7.3,7.3,7.4c14.4,0,28.8,0,43.2,0.1
		c0,13.3,0,26.7-0.1,40c-0.9-0.3-1.7-0.6-2.6-1c-13.8-5.8-29.5-2.4-39.8,8.4c-7.7,8-10.3,17.7-9.7,28.5c-7.2-0.1-14.3-0.1-21.5-0.2
		C298.4,231.8,298.3,224.3,298.3,216.8z"/>
	<path id="XMLID_62_" class="st4" d="M360.8,102.5c-0.9-0.8-2-0.8-3-0.6c-6,1.2-10-1.6-13.7-5.9c-4-4.5-8.5-8.5-12.6-12.8
		c-2.1-2.2-4.5-4.1-7.4-5.2c14.5,0,29-0.1,43.5-0.1c3.3,0,6.2,1.6,8.5,3.9c12.7,12.8,25.3,25.6,37.9,38.4c2.5,2.6,3.6,5.8,3.6,9.4
		c0,32.6,0,65.3,0,97.9c0,7.2-4.8,11.9-12,11.9c-4.8,0-9.6,0-14.4,0c0.6-15.7-5.6-27.8-19.2-35.9c0-13.3,0-26.7,0.1-40
		c5.2,0,10.4,0,15.6-0.1c5.3,0,7.5-2.1,7.6-7.5c0.1-5.3-0.1-10.6,0.1-16c0.1-3.4-1.2-6.2-3.5-8.5c-8.8-8.8-17.7-17.7-26.5-26.5
		C363.9,103.7,362.7,102.4,360.8,102.5z"/>
	<path id="XMLID_61_" class="st5" d="M185.7,5.9c0,23,0.1,46.1,0,69.1c0,4.5-1.5,6-6,6c-18.5,0-37,0-55.5,0c-5,0-6.6-1.7-6.6-6.8
		c0-22.8,0-45.5,0-68.3C140.3,5.9,163,5.9,185.7,5.9z"/>
	<path id="XMLID_60_" class="st6" d="M298.3,216.8c0,7.5,0,15,0,22.5c-12.8,0-25.6,0.1-38.4,0.1c-48.2,0-96.5,0-144.7,0.1
		c0.6-8.2-1.1-15.8-4.9-23c45.7,0,91.5-0.1,137.2-0.1c1.7,0,3.5-0.1,5.2-0.1c1.2,0.8,2.6,0.5,3.9,0.5
		C270.5,216.8,284.4,216.8,298.3,216.8z"/>
	<path id="XMLID_57_" class="st7" d="M110.4,216.5c3.8,7.2,5.6,14.8,4.9,23c-1.8,17.5-16.6,31.1-34.8,31.9
		c-16.7,0.7-32.4-11.9-35.9-28.8c-0.2-1-0.4-2.1-0.6-3.1c-0.5-8.2,1.4-15.9,5.4-23c7-10.4,16.8-16.3,29.3-16.7
		c10.7-0.4,20,3.6,27.4,11.5C107.6,212.9,108.9,214.7,110.4,216.5z M79.7,221.7c-7.6,0-13.8,6.1-13.9,13.6
		c-0.1,7.5,6.3,13.9,14,13.9c7.8,0,13.9-6.2,13.8-14C93.5,227.6,87.4,221.7,79.7,221.7z"/>
	<path id="XMLID_54_" class="st7" d="M372,203.5c13.6,8.1,19.8,20.2,19.2,35.9c-2,12-7.7,21.4-18.6,27.3
		c-22.4,12.2-49.8-2-52.7-27.3c-0.7-10.8,2-20.5,9.7-28.5c10.3-10.8,26-14.2,39.8-8.4C370.2,202.9,371.1,203.2,372,203.5z
		 M355.5,249.2c7.5,0,13.8-6.1,13.9-13.6c0.2-7.5-6.3-13.9-14-13.9c-7.6,0-13.7,6-13.8,13.6C341.5,243,347.7,249.2,355.5,249.2z"/>
	<path id="XMLID_53_" class="st8" d="M252.8,176.9c4,0,8,0.1,12,0.2c4.6,0.1,7.3,2.3,7.4,6.1c0.1,3.9-2.3,6.2-7,6.4
		c-4.1,0.2-8.3,0.2-12.4,0.2c-15.8,0-31.7-0.1-47.5-0.1c-1.5,0-2.9-0.1-4.4-0.3c-3.5-0.6-5.4-2.8-5.5-6.3c-0.1-3.1,2.8-5.8,6.3-5.9
		c3.1-0.2,6.1,0,9.2-0.1C224.9,177,238.9,176.9,252.8,176.9z"/>
	<path id="XMLID_52_" class="st9" d="M252.8,141.4c4.2,0.1,8.5,0.1,12.7,0.2c4.4,0.2,6.7,2.4,6.6,6.2c-0.1,3.5-2.6,5.8-6.6,5.9
		c-4.2,0.1-8.5,0.1-12.7,0.2c-16.8,0-33.5-0.1-50.3-0.1c-3.3,0-5.6-1.3-6.8-4.4c-0.9-2.6,0.1-4.7,1.9-6.4c1.6-1.6,3.7-1.3,5.7-1.3
		c14.9,0,29.8,0,44.7,0C249.6,141.6,251.2,141.5,252.8,141.4z"/>
	<path id="XMLID_51_" class="st10" d="M360.8,102.5c1.9,0,3.1,1.2,4.4,2.5c8.8,8.9,17.6,17.7,26.5,26.5c2.4,2.4,3.6,5.1,3.5,8.5
		c-0.1,5.3,0,10.6-0.1,16c-0.1,5.4-2.2,7.4-7.6,7.5c-5.2,0-10.4,0-15.6,0.1c-14.4,0-28.8,0-43.2-0.1c-5.7,0-7.3-1.5-7.3-7.4
		c0-15.6,0-31.2,0-46.8c0-5.5,1.2-6.7,6.9-6.7C339.2,102.5,350,102.5,360.8,102.5z"/>
	<path id="XMLID_50_" class="st11" d="M79.7,221.7c7.7,0,13.8,5.9,13.9,13.5c0.1,7.8-5.9,14-13.8,14c-7.7,0-14.1-6.3-14-13.9
		C65.9,227.8,72.1,221.7,79.7,221.7z"/>
	<path id="XMLID_49_" class="st11" d="M355.5,249.2c-7.8,0-14-6.1-13.9-13.9c0.1-7.6,6.2-13.6,13.8-13.6c7.7,0,14.1,6.4,14,13.9
		C369.2,243.1,363,249.1,355.5,249.2z"/>
</g>
</svg>
