<svg height="512pt" viewBox="0 -1 512.00002 512" width="512pt" xmlns="http://www.w3.org/2000/svg"><path d="m168.167969 0-12.066407 12.066406 17.066407 17.066406c3.332031 3.332032 8.730469 3.332032 12.0625 0l17.070312-17.066406-12.066406-12.066406-11.035156 11.035156zm0 0"/><path d="m321.765625 0-12.066406 12.066406 17.066406 17.066406c3.332031 3.332032 8.734375 3.332032 12.066406 0l17.066407-17.066406-12.066407-12.066406-11.03125 11.035156zm0 0"/><path d="m145.066406 219.367188h17.066406v17.066406h-17.066406zm0 0"/><path d="m162.132812 202.300781h17.066407v17.066407h-17.066407zm0 0"/><path d="m349.867188 219.367188h17.066406v17.066406h-17.066406zm0 0"/><path d="m332.800781 202.300781h17.066407v17.066407h-17.066407zm0 0"/><path d="m247.464844 244.964844h17.066406v17.066406h-17.066406zm0 0"/><path d="m264.535156 262.03125h17.066406v17.066406h-17.066406zm0 0"/><path d="m230.398438 262.03125h17.066406v17.066406h-17.066406zm0 0"/><path d="m477.867188 151.101562c-15.558594.015626-29.144532 10.539063-33.050782 25.597657h-48.1875l-16.441406-31.316407 27.738281 5.546876 3.347657-16.726563-34.132813-6.824219 18.023437-18.023437 29.445313 7.363281 4.132813-16.554688-19.507813-4.878906 12.433594-12.453125h47.664062c4.714844 0 8.535157-3.820312 8.53125-8.535156 0-2.261719-.898437-4.429687-2.496093-6.03125l-51.199219-51.199219c-3.335938-3.332031-8.738281-3.332031-12.070313.003906-1.597656 1.597657-2.496094 3.769532-2.496094 6.03125v47.664063l-12.441406 12.453125-4.882812-19.527344-16.554688 4.148438 7.363282 29.441406-18.457032 18.464844-1.074218-2.039063c-31.191407-59.402343-104.628907-82.269531-164.03125-51.078125-21.8125 11.453125-39.625 29.265625-51.078126 51.078125l-1.074218 2.039063-18.457032-18.464844 7.363282-29.441406-16.554688-4.148438-4.878906 19.527344-12.445312-12.453125v-47.664063c0-4.714843-3.820313-8.535156-8.53125-8.535156-2.265626.003906-4.433594.902344-6.035157 2.5l-51.199219 51.199219c-3.332031 3.332031-3.332031 8.738281.003907 12.070313 1.597656 1.597656 3.769531 2.496093 6.03125 2.496093h47.664062l12.445313 12.441407-19.507813 4.882812 4.128907 16.554688 29.449218-7.367188 18.023438 18.023438-34.136719 6.828124 3.347656 16.722657 27.742188-5.546875-16.453125 31.328125h-48.1875c-4.714844-18.253907-23.332032-29.230469-41.582032-24.515625-15.070312 3.890625-25.601562 17.484375-25.601562 33.050781.00390625 6 1.613281 11.894531 4.660156 17.066406-3.046875 5.171875-4.65624975 11.0625-4.660156 17.066407 0 18.851562 15.28125 34.132812 34.132812 34.132812 15.566407 0 29.160157-10.53125 33.050782-25.601562h21.332031l-63.769531 121.371093c-16.230469 31.011719-24.7226565 65.492188-24.746094 100.496094 0 4.714844 3.820312 8.535156 8.535156 8.535156h34.132813v1.59375c.027343 27.386719 22.21875 49.578125 49.601562 49.605469h54.390625c16.464844-.003906 31.855469-8.179688 41.074219-21.820312 9.21875 13.640624 24.605469 21.816406 41.070313 21.820312h54.390624c16.464844-.003906 31.851563-8.179688 41.070313-21.820312 9.21875 13.640624 24.609375 21.816406 41.070313 21.820312h54.394531c27.382812-.027344 49.574219-22.21875 49.601562-49.605469v-1.59375h34.132813c4.714844 0 8.535156-3.820312 8.535156-8.535156-.027344-35.003906-8.515625-69.480469-24.746094-100.496094l-63.746094-121.371093h21.335938c4.765625 18.238281 23.414062 29.160156 41.652344 24.394531 14.988281-3.917969 25.460937-17.4375 25.503906-32.925781-.003906-6.003907-1.613281-11.894532-4.660156-17.066407 3.046875-5.171875 4.65625-11.066406 4.660156-17.066406 0-18.851563-15.28125-34.132813-34.132812-34.132813zm-51.199219-107.402343 22.066406 22.066406h-22.066406zm-341.335938 22.066406h-22.066406l22.066406-22.066406zm-25.597656 145.066406c-4.714844 0-8.535156 3.820313-8.535156 8.535157 0 9.425781-7.640625 17.066406-17.066407 17.066406-9.425781 0-17.066406-7.640625-17.066406-17.066406.011719-4.210938 1.597656-8.261719 4.445313-11.359376 2.921875-3.246093 2.921875-8.171874 0-11.417968-2.847657-3.097656-4.433594-7.148438-4.445313-11.355469 0-9.425781 7.640625-17.066406 17.066406-17.066406 9.425782 0 17.066407 7.640625 17.066407 17.066406 0 4.710937 3.820312 8.53125 8.535156 8.53125h46.675781l-8.960937 17.066406zm119.464844 249.0625c-.023438 17.960938-14.578125 32.515625-32.539063 32.539063h-54.390625c-17.960937-.023438-32.511719-14.578125-32.535156-32.539063v-37.324219c.023437-17.960937 14.574219-32.511718 32.535156-32.539062h9.4375l-23.039062 28.800781 13.332031 10.667969 18.933594-23.671875v26.871094h17.066406v-26.871094l18.9375 23.671875 13.328125-10.667969-23.039063-28.796875h9.4375c17.960938.023438 32.511719 14.574219 32.535157 32.535156zm-92.015625-110.820312.71875-.71875c4.105468-4.097657 10.53125-4.730469 15.359375-1.511719 9.816406 6.558594 22.613281 6.558594 32.425781 0 4.832031-3.207031 11.253906-2.570312 15.363281 1.519531l.714844.71875-11.945313 23.894531h-40.679687zm228.550781 110.820312c-.023437 17.960938-14.578125 32.515625-32.539063 32.539063h-54.390624c-17.960938-.023438-32.515626-14.578125-32.539063-32.539063v-37.324219c.023437-17.960937 14.578125-32.511718 32.539063-32.539062h9.4375l-23.039063 28.800781 13.328125 10.667969 18.9375-23.671875v26.871094h17.066406v-26.871094l18.933594 23.671875 13.328125-10.667969-23.039063-28.796875h9.4375c17.960938.023438 32.515626 14.574219 32.539063 32.535156zm-92.015625-110.820312.714844-.71875c4.109375-4.097657 10.535156-4.730469 15.363281-1.511719 9.8125 6.558594 22.609375 6.558594 32.425781 0 4.832032-3.207031 11.25-2.570312 15.359375 1.519531l.71875.71875-11.949219 23.894531h-40.675781zm228.546875 110.820312c-.023437 17.960938-14.578125 32.515625-32.535156 32.539063h-54.394531c-17.957032-.023438-32.511719-14.578125-32.535157-32.539063v-37.324219c.023438-17.960937 14.578125-32.511718 32.535157-32.539062h9.441406l-23.042969 28.800781 13.328125 10.667969 18.9375-23.671875v26.871094h17.066406v-26.871094l18.933594 23.671875 13.332031-10.667969-23.039062-28.796875h9.4375c17.960937.023438 32.511719 14.574219 32.535156 32.535156zm-92.015625-110.820312.71875-.71875c4.105469-4.097657 10.535156-4.730469 15.359375-1.511719 9.816406 6.558594 22.613281 6.558594 32.425781 0 4.832032-3.207031 11.253906-2.570312 15.363282 1.519531l.714843.71875-11.945312 23.894531h-40.679688zm111.855469 8.148437c13.625 26.003906 21.355469 54.683594 22.648437 84.011719h-25.421875v-18.664063c-.039062-22.9375-15.785156-42.863281-38.089843-48.203124l11.636718-23.1875c1.640625-3.285157.996094-7.25-1.601562-9.847657l-5.070313-5.066406c-9.863281-9.828125-25.28125-11.355469-36.878906-3.652344-4.089844 2.726563-9.414063 2.726563-13.5 0-11.601563-7.703125-27.019531-6.175781-36.882813 3.652344l-5.070312 5.066406c-2.597656 2.597657-3.242188 6.5625-1.601562 9.847657l11.597656 23.1875c-12.070313 2.878906-22.628906 10.160156-29.601563 20.417968-6.96875-10.25-17.507812-17.53125-29.5625-20.417968l11.640625-23.1875c1.640625-3.285157.992188-7.25-1.605468-9.847657l-5.066407-5.066406c-9.863281-9.828125-25.28125-11.355469-36.882812-3.652344-4.085938 2.726563-9.414063 2.726563-13.5 0-11.597657-7.703125-27.015625-6.175781-36.878907 3.652344l-5.070312 5.066406c-2.597656 2.597657-3.242188 6.5625-1.605469 9.847657l11.597657 23.1875c-12.066407 2.878906-22.625 10.160156-29.601563 20.417968-6.964844-10.25-17.507813-17.53125-29.558594-20.417968l11.640625-23.1875c1.636719-3.285157.992188-7.25-1.605468-9.847657l-5.070313-5.066406c-9.863281-9.828125-25.28125-11.355469-36.878906-3.652344-4.085938 2.726563-9.414063 2.726563-13.5 0-11.601563-7.703125-27.019531-6.175781-36.882813 3.652344l-5.066406 5.066406c-2.597656 2.597657-3.246094 6.5625-1.605469 9.847657l11.597657 23.1875c-22.324219 5.324218-38.09375 25.253906-38.136719 48.203124v18.664063h-25.421875c1.289062-29.335937 9.019531-58.027344 22.648437-84.039063l123.664063-235.519531c26.800781-51.054687 89.914062-70.714843 140.96875-43.910156 18.753906 9.84375 34.070312 25.160156 43.914062 43.910156zm18.382812-149.1875c2.84375 3.089844 4.429688 7.132813 4.445313 11.332032 0 9.425781-7.640625 17.066406-17.066406 17.066406-9.425782 0-17.066407-7.640625-17.066407-17.066406 0-4.714844-3.820312-8.535157-8.535156-8.535157h-37.714844l-8.960937-17.066406h46.675781c4.714844 0 8.535156-3.820313 8.535156-8.53125 0-9.425781 7.640625-17.066406 17.066407-17.066406 9.425781 0 17.066406 7.640625 17.066406 17.066406-.011719 4.207031-1.597656 8.257813-4.445313 11.355469-2.921875 3.246094-2.921875 8.175781 0 11.417968zm0 0"/><path d="m256 125.5c-14.140625 0-25.601562 11.460938-25.601562 25.601562 0 14.136719 11.460937 25.597657 25.601562 25.597657 14.136719 0 25.597656-11.460938 25.597656-25.597657 0-14.140624-11.460937-25.601562-25.597656-25.601562zm0 34.132812c-4.714844 0-8.535156-3.820312-8.535156-8.53125 0-4.714843 3.820312-8.535156 8.535156-8.535156 4.710938 0 8.53125 3.820313 8.53125 8.535156.003906 4.710938-3.820312 8.53125-8.53125 8.53125zm0 0"/><path d="m256 91.367188c-32.988281 0-59.734375 26.742187-59.734375 59.734374 0 32.988282 26.746094 59.730469 59.734375 59.730469s59.734375-26.742187 59.734375-59.730469c-.039063-32.976562-26.761719-59.695312-59.734375-59.734374zm0 102.398437c-23.5625 0-42.667969-19.101563-42.667969-42.667969 0-23.5625 19.101563-42.664062 42.667969-42.664062 23.5625 0 42.667969 19.101562 42.667969 42.664062-.03125 23.554688-19.117188 42.640625-42.667969 42.667969zm0 0"/></svg>