<?xml version="1.0" encoding="iso-8859-1"?>
<!-- Generator: Adobe Illustrator 19.0.0, SVG Export Plug-In . SVG Version: 6.00 Build 0)  -->
<svg version="1.1" id="Capa_1" xmlns="http://www.w3.org/2000/svg" xmlns:xlink="http://www.w3.org/1999/xlink" x="0px" y="0px"
	 viewBox="0 0 511.999 511.999" style="enable-background:new 0 0 511.999 511.999;" xml:space="preserve">
<g>
	<g>
		<path d="M392.146,267.531c-3.907-3.905-10.237-3.905-14.143,0l-0.028,0.028c-3.905,3.905-3.89,10.223,0.015,14.128
			c1.949,1.949,4.505,2.922,7.063,2.922c2.568,0,5.137-0.981,7.093-2.935C396.051,277.768,396.051,271.436,392.146,267.531z"/>
	</g>
</g>
<g>
	<g>
		<path d="M365.838,241.722L263.004,140.85c-3.891-3.815-10.117-3.815-14.006,0L119.923,267.463
			c-3.943,3.868-4.003,10.199-0.136,14.142c1.958,1.996,4.548,2.997,7.14,2.997c2.527,0,5.056-0.953,7.002-2.862l122.072-119.743
			l95.831,94.002c3.945,3.868,10.275,3.805,14.142-0.136C369.841,251.921,369.78,245.589,365.838,241.722z"/>
	</g>
</g>
<g>
	<g>
		<path d="M508.964,241.748l-59.679-57.913V67.727c0-5.523-4.478-10-10-10h-62.936c-5.522,0-10,4.477-10,10v35.626L262.964,3.026
			c-3.879-3.765-10.049-3.765-13.928,0l-246,238.721c-1.968,1.909-3.064,4.542-3.035,7.283c0.029,2.741,1.182,5.35,3.189,7.217
			l43.89,40.81c3.915,3.64,9.997,3.558,13.813-0.185l15.698-15.399v220.323c0,5.523,4.478,10,10,10h338.818c5.522,0,10-4.477,10-10
			V281.474l15.698,15.399c1.942,1.905,4.472,2.861,7.004,2.861c2.442,0,4.887-0.89,6.809-2.677l43.89-40.81
			c2.008-1.867,3.16-4.476,3.189-7.217C512.029,246.29,510.932,243.656,508.964,241.748z M386.35,77.727h42.936v86.699
			l-42.936-41.665V77.727z M415.41,491.796H96.591v-229.94l159.41-156.369L415.41,261.856V491.796z M458.296,275.907L263.004,84.34
			c-3.889-3.815-10.117-3.815-14.006,0L53.706,275.907l-29.187-27.138L256.001,24.137l231.481,224.632L458.296,275.907z"/>
	</g>
</g>
<g>
	<g>
		<path d="M358.179,377.203c-2.238-2.239-5.403-3.284-8.536-2.821l-82.191,12.177c-3.737,0.553-6.842,3.166-8.029,6.753
			c-1.185,3.586-0.248,7.536,2.423,10.208l10.022,10.026c-5.191,1.919-10.711,2.917-16.268,2.917
			c-12.162,0-23.531-4.674-31.976-13.121l-0.179-0.181c-6.889-6.957-11.477-16.09-12.919-25.718
			c-0.817-5.455-5.888-9.221-11.355-8.41l-42.597,6.311c-5.459,0.809-9.232,5.888-8.428,11.348
			c3.419,23.226,14.028,44.308,30.68,60.965c20.546,20.552,47.905,31.871,77.039,31.871h0.306
			c22.454-0.062,43.856-6.781,62.183-19.476l13.51,13.514c2.672,2.673,6.623,3.609,10.21,2.425c3.588-1.186,6.201-4.293,6.755-8.031
			l12.172-82.221C361.464,382.607,360.418,379.441,358.179,377.203z M331.955,445.367l-5.541-5.542
			c-3.528-3.527-9.114-3.917-13.094-0.914l-3.352,2.528c-15.626,11.78-34.248,18.035-53.825,18.089h-0.278
			c-23.791,0-46.127-9.238-62.895-26.011c-11.206-11.21-19.058-24.868-23.032-39.935l23.053-3.414
			c3.158,10.124,8.748,19.498,16.237,27.062l0.213,0.215c12.261,12.265,28.653,19.019,46.158,19.019
			c11.287,0,22.471-2.885,32.342-8.344l5.618-3.107c2.749-1.521,4.624-4.244,5.062-7.354c0.44-3.11-0.608-6.245-2.829-8.467
			l-5.758-5.761l49.208-7.291L331.955,445.367z"/>
	</g>
</g>
<g>
	<g>
		<path d="M363.856,351.369c-3.417-23.223-14.026-44.304-30.679-60.965c-20.548-20.553-47.908-31.871-77.04-31.871h-0.307
			c-22.454,0.061-43.856,6.78-62.183,19.477l-13.51-13.514c-2.674-2.673-6.625-3.61-10.21-2.425
			c-3.588,1.186-6.201,4.293-6.755,8.031L151,352.324c-0.463,3.132,0.583,6.298,2.822,8.536c2.238,2.239,5.405,3.284,8.536,2.821
			l82.191-12.177c3.737-0.553,6.842-3.166,8.029-6.753c1.185-3.587,0.248-7.536-2.423-10.208l-10.022-10.027
			c5.19-1.919,10.71-2.917,16.267-2.917c12.162,0,23.528,4.67,31.978,13.122l0.177,0.179c6.903,6.972,11.493,16.103,12.927,25.711
			c0.74,4.962,5.007,8.526,9.878,8.526c0.487,0,0.981-0.036,1.479-0.11l42.589-6.31C360.887,361.908,364.66,356.829,363.856,351.369
			z M319.02,347.893c-3.156-10.113-8.752-19.489-16.26-27.072l-0.211-0.213c-12.253-12.258-28.643-19.009-46.148-19.009
			c-11.288,0-22.471,2.885-32.34,8.343l-5.619,3.107c-2.75,1.521-4.625,4.244-5.063,7.354c-0.44,3.111,0.608,6.246,2.829,8.468
			l5.759,5.761l-49.208,7.29l7.287-49.227l5.54,5.542c3.526,3.526,9.113,3.916,13.093,0.914l3.354-2.528
			c15.627-11.78,34.248-18.035,53.824-18.089h0.279c23.79,0,46.126,9.238,62.896,26.01c11.206,11.211,19.057,24.871,23.031,39.935
			L319.02,347.893z"/>
	</g>
</g>
<g>
</g>
<g>
</g>
<g>
</g>
<g>
</g>
<g>
</g>
<g>
</g>
<g>
</g>
<g>
</g>
<g>
</g>
<g>
</g>
<g>
</g>
<g>
</g>
<g>
</g>
<g>
</g>
<g>
</g>
</svg>
