<?xml version="1.0" encoding="utf-8"?>
<!-- Generator: Adobe Illustrator 16.0.0, SVG Export Plug-In . SVG Version: 6.00 Build 0)  -->
<!DOCTYPE svg PUBLIC "-//W3C//DTD SVG 1.1//EN" "http://www.w3.org/Graphics/SVG/1.1/DTD/svg11.dtd">
<svg version="1.1" id="Layer_1" xmlns="http://www.w3.org/2000/svg" xmlns:xlink="http://www.w3.org/1999/xlink" x="0px" y="0px"
	 width="512px" height="512px" viewBox="0 0 512 512" enable-background="new 0 0 512 512" xml:space="preserve">
<path d="M362.134,64.733L297.4,0H3.733v486.4h358.4V64.733z M302.4,29.133l30.6,30.6h-30.6V29.133z M20.8,469.333V17.066h264.534
	V76.8h59.732v392.533H20.8z"/>
<path d="M345.066,17.066v17.067H379.2v460.8H29.333V512h366.933V17.066H345.066z"/>
<path d="M123.2,170.667H63.467v-59.733H46.4v76.8h76.8V170.667z"/>
<path d="M88.65,141.117L78.033,130.5l-12.066,12.066l23.517,23.517l65.733-75.125l-12.833-11.25L88.65,141.117z"/>
<path d="M123.2,298.666H63.467v-59.732H46.4v76.8h76.8V298.666z"/>
<path d="M88.65,269.117L78.033,258.5l-12.066,12.066l23.517,23.518l65.733-75.125l-12.833-11.25L88.65,269.117z"/>
<path d="M63.467,366.934H46.4v76.8h76.8v-17.066H63.467V366.934z"/>
<path d="M88.65,397.117L78.033,386.5l-12.066,12.066l23.517,23.517l65.733-75.124l-12.833-11.25L88.65,397.117z"/>
<path d="M182.934,119.467h102.4v17.066h-102.4V119.467z"/>
<path d="M182.934,153.6H251.2v17.066h-68.267V153.6z"/>
<path d="M268.267,153.6h51.2v17.066h-51.2V153.6z"/>
<path d="M225.6,247.467h93.867v17.066H225.6V247.467z"/>
<path d="M182.934,281.6h76.8v17.066h-76.8V281.6z"/>
<path d="M276.8,281.6h42.667v17.066H276.8V281.6z"/>
<path d="M182.934,375.467h136.533v17.066H182.934V375.467z"/>
<path d="M182.934,409.6h34.133v17.067h-34.133V409.6z"/>
<path d="M234.133,409.6h85.333v17.067h-85.333V409.6z"/>
<path d="M182.934,247.467h25.6v17.066h-25.6V247.467z"/>
<path d="M302.4,119.467h17.066v17.066H302.4V119.467z"/>
</svg>
