<?xml version="1.0" encoding="iso-8859-1"?>
<!-- Generator: Adobe Illustrator 16.0.0, SVG Export Plug-In . SVG Version: 6.00 Build 0)  -->
<!DOCTYPE svg PUBLIC "-//W3C//DTD SVG 1.1//EN" "http://www.w3.org/Graphics/SVG/1.1/DTD/svg11.dtd">
<svg version="1.1" id="Capa_1" xmlns="http://www.w3.org/2000/svg" xmlns:xlink="http://www.w3.org/1999/xlink" x="0px" y="0px"
	 width="435.074px" height="435.074px" viewBox="0 0 435.074 435.074" style="enable-background:new 0 0 435.074 435.074;"
	 xml:space="preserve">
<g>
	<g>
		<g>
			<path d="M267.864,201.2c-8.759,1.429-17.481,5.225-25.333,10.911l-82.587-82.586c-4.363-4.362-11.437-4.361-15.799,0.001
				c-4.29,4.291-4.353,11.198-0.2,15.574l-21.341,21.339c-4.362,4.363-4.362,11.437,0.001,15.8
				c4.362,4.363,11.436,4.361,15.798-0.001l21.328-21.326l10.533,10.533l-21.329,21.327c-4.362,4.364-4.362,11.437,0.002,15.801
				c4.362,4.361,11.438,4.361,15.799,0l21.328-21.328l40.668,40.668c-5.685,7.851-9.483,16.571-10.914,25.333
				c-2.151,13.165,1.154,24.908,9.308,33.059c8.153,8.154,19.896,11.461,33.059,9.31c12.093-1.974,24.115-8.433,33.865-18.183
				c9.752-9.75,16.208-21.774,18.183-33.862c2.151-13.166-1.152-24.908-9.309-33.061C292.772,202.354,281.029,199.049,267.864,201.2
				z M278.034,263.414c-12.532,12.531-29.993,16.25-38.13,8.112c-8.133-8.133-4.417-25.598,8.114-38.128
				c12.531-12.532,29.993-16.251,38.13-8.115C294.284,233.422,290.566,250.883,278.034,263.414z"/>
			<path d="M418.074,200.537h-17.791c-3.923-42.427-22.711-82.393-53.032-112.713c-30.321-30.322-70.287-49.11-112.714-53.033V17
				c0-9.374-7.626-17-17-17s-17,7.626-17,17v17.792c-42.427,3.922-82.393,22.711-112.714,53.032
				c-30.321,30.32-49.109,70.286-53.032,112.713H17c-9.374,0-17,7.626-17,17s7.626,17,17,17h17.791
				c3.923,42.427,22.711,82.393,53.032,112.713c30.321,30.321,70.287,49.11,112.714,53.032v17.792c0,9.374,7.626,17,17,17
				s17-7.626,17-17v-17.792c42.427-3.922,82.393-22.711,112.714-53.032c30.321-30.32,49.109-70.286,53.032-112.713h17.791
				c9.374,0,17-7.626,17-17S427.448,200.537,418.074,200.537z M350.074,234.537h16.034c-7.831,68.908-62.663,123.74-131.571,131.571
				v-16.034c0-9.374-7.626-17-17-17s-17,7.626-17,17v16.034c-68.908-7.831-123.74-62.663-131.571-131.571H85c9.374,0,17-7.626,17-17
				s-7.626-17-17-17H68.966c7.831-68.908,62.663-123.74,131.571-131.571V85c0,9.374,7.626,17,17,17s17-7.626,17-17V68.966
				c68.908,7.831,123.74,62.663,131.571,131.571h-16.034c-9.374,0-17,7.626-17,17S340.7,234.537,350.074,234.537z"/>
		</g>
	</g>
</g>
<g>
</g>
<g>
</g>
<g>
</g>
<g>
</g>
<g>
</g>
<g>
</g>
<g>
</g>
<g>
</g>
<g>
</g>
<g>
</g>
<g>
</g>
<g>
</g>
<g>
</g>
<g>
</g>
<g>
</g>
</svg>
